<?xml version="1.0" encoding="utf-8"?>
<!-- Generator: Adobe Illustrator 16.0.0, SVG Export Plug-In . SVG Version: 6.00 Build 0)  -->
<!DOCTYPE svg PUBLIC "-//W3C//DTD SVG 1.1//EN" "http://www.w3.org/Graphics/SVG/1.1/DTD/svg11.dtd">
<svg version="1.1" id="Layer_1" xmlns="http://www.w3.org/2000/svg" xmlns:xlink="http://www.w3.org/1999/xlink" x="0px" y="0px"
	 width="22px" height="24.25px" viewBox="0 0 22 24.25" enable-background="new 0 0 22 24.25" xml:space="preserve">
<path fill-rule="evenodd" clip-rule="evenodd" fill="#0092CE" stroke="#0092CE" stroke-width="0.25" stroke-miterlimit="10" d="
	M0.129,20.353c0-4.583,0-9.167,0-13.751C0.17,6.487,0.215,6.375,0.248,6.258c0.378-1.339,1.395-2.215,2.614-2.216
	c5.425-0.005,10.85-0.005,16.274,0c1.207,0.001,2.205,0.848,2.596,2.163c0.04,0.136,0.092,0.265,0.138,0.396
	c0,4.584,0,9.168,0,13.751c-0.034,0.098-0.076,0.193-0.104,0.295c-0.367,1.369-1.391,2.267-2.629,2.269
	c-5.425,0.003-10.85,0.003-16.274,0c-1.206-0.002-2.205-0.851-2.595-2.166C0.228,20.617,0.176,20.487,0.129,20.353z M19.567,21.288
	c-2.024-2.677-3.964-5.242-5.92-7.827c-0.636,0.633-1.227,1.203-1.806,1.793c-0.749,0.763-0.934,0.763-1.67,0.015
	c-0.589-0.598-1.19-1.183-1.823-1.808c-1.963,2.599-3.901,5.162-5.915,7.827C8.195,21.288,13.818,21.288,19.567,21.288z
	 M2.559,5.641c2.881,2.858,5.658,5.612,8.442,8.375c2.808-2.787,5.573-5.531,8.44-8.375C13.771,5.641,8.243,5.641,2.559,5.641z
	 M20.455,20.07c0-4.498,0-8.864,0-13.36c-1.979,1.962-3.865,3.834-5.773,5.726C16.605,14.98,18.499,17.486,20.455,20.07z
	 M1.527,6.691c0,4.532,0,8.9,0,13.403c1.976-2.616,3.875-5.127,5.791-7.661C5.396,10.528,3.519,8.667,1.527,6.691z"/>
</svg>
