<svg xmlns="http://www.w3.org/2000/svg" width="38.061" height="38.061" viewBox="0 0 38.061 38.061">
  <path id="Path_32" data-name="Path 32" d="M165.422,128.505h0a19.03,19.03,0,0,0-19.031,19.031h0a19.03,19.03,0,0,0,19.031,19.03h0a19.03,19.03,0,0,0,19.03-19.03h0A19.03,19.03,0,0,0,165.422,128.505Zm5.309,11.559h-2.507c-.886,0-1.07.362-1.07,1.278v2.212h3.577l-.344,3.884h-3.233v11.6h-4.632V147.487h-2.41v-3.933h2.41v-3.1c0-2.906,1.554-4.424,5-4.424h3.208Z" transform="translate(-146.391 -128.505)" fill="#fff"/>
</svg>
