<?xml version="1.0" encoding="utf-8"?>
<!-- Generator: Adobe Illustrator 16.0.0, SVG Export Plug-In . SVG Version: 6.00 Build 0)  -->
<!DOCTYPE svg PUBLIC "-//W3C//DTD SVG 1.1//EN" "http://www.w3.org/Graphics/SVG/1.1/DTD/svg11.dtd">
<svg version="1.1" id="Layer_1" xmlns="http://www.w3.org/2000/svg" xmlns:xlink="http://www.w3.org/1999/xlink" x="0px" y="0px"
	 width="1920px" height="1080px" viewBox="0 0 1920 1080" enable-background="new 0 0 1920 1080" xml:space="preserve">
<rect x="0.725" y="-1.003" fill="none" width="1920" height="1080"/>
<linearGradient id="Rectangle_35_1_" gradientUnits="userSpaceOnUse" x1="241.3301" y1="1055.5117" x2="239.9521" y2="1055.5198" gradientTransform="matrix(-622.5146 -560.5147 113.2952 -125.827 30531.8281 267798.75)">
	<stop  offset="0" style="stop-color:#5AE6F9"/>
	<stop  offset="1" style="stop-color:#58EAF9"/>
</linearGradient>
<path id="Rectangle_35" opacity="0.27" fill="url(#Rectangle_35_1_)" enable-background="new    " d="M668.76,422.452
	L668.76,422.452c-31.285,34.746-84.815,37.552-119.562,6.266L52.512-18.501c-34.746-31.286-37.553-84.815-6.267-119.562l0,0
	c31.286-34.746,84.815-37.551,119.562-6.265l496.687,447.219C697.241,334.176,700.045,387.706,668.76,422.452z"/>
<linearGradient id="Rectangle_37_1_" gradientUnits="userSpaceOnUse" x1="240.9814" y1="1055.502" x2="240.121" y2="1055.552" gradientTransform="matrix(-1135.095 -1022.0442 113.2952 -125.827 153806.6563 379258.0938)">
	<stop  offset="0" style="stop-color:#57EDF9"/>
	<stop  offset="1" style="stop-color:#65BFFD"/>
</linearGradient>
<path id="Rectangle_37" opacity="0.27" fill="url(#Rectangle_37_1_)" enable-background="new    " d="M668.042,883.981
	L668.042,883.981c-31.286,34.746-84.815,37.553-119.562,6.266L-460.787-18.5c-34.746-31.286-37.552-84.815-6.266-119.562l0,0
	c31.285-34.746,84.814-37.552,119.561-6.266L661.776,764.421C696.522,795.706,699.328,849.235,668.042,883.981z"/>
<linearGradient id="Rectangle_36_1_" gradientUnits="userSpaceOnUse" x1="241.3301" y1="1057.7432" x2="239.9521" y2="1057.7512" gradientTransform="matrix(-622.5146 -560.5147 69.3152 -76.9824 76498.7266 216376.2188)">
	<stop  offset="0" style="stop-color:#5AE6F9"/>
	<stop  offset="1" style="stop-color:#58EAF9"/>
</linearGradient>
<path id="Rectangle_36" opacity="0.27" fill="url(#Rectangle_36_1_)" enable-background="new    " d="M368.826,384.81
	L368.826,384.81c-19.142,21.258-51.892,22.974-73.149,3.833l-545.532-491.199c-21.258-19.141-22.974-51.891-3.833-73.149l0,0
	c19.141-21.258,51.891-22.974,73.148-3.833l545.532,491.199C386.25,330.802,387.966,363.551,368.826,384.81z"/>
<linearGradient id="Rectangle_38_1_" gradientUnits="userSpaceOnUse" x1="241.2695" y1="1057.6787" x2="240.21" y2="1057.9816" gradientTransform="matrix(-707.2821 -636.8397 67.977 -75.4961 98382.5781 233738.5781)">
	<stop  offset="0" style="stop-color:#5BDEFA"/>
	<stop  offset="1" style="stop-color:#65BDFD"/>
</linearGradient>
<path id="Rectangle_38" opacity="0.27" fill="url(#Rectangle_38_1_)" enable-background="new    " d="M458.593,954.612
	L458.593,954.612c-18.771,20.848-50.889,22.529-71.736,3.758l-631.786-568.862c-20.848-18.771-22.531-50.889-3.76-71.736l0,0
	c18.771-20.848,50.889-22.531,71.736-3.76l631.786,568.862C475.681,901.646,477.365,933.765,458.593,954.612z"/>
<g>
	
		<linearGradient id="Rectangle_39_1_" gradientUnits="userSpaceOnUse" x1="241.1304" y1="1056.7549" x2="239.7524" y2="1056.7629" gradientTransform="matrix(-622.5146 -560.5147 113.2952 -125.827 32046.8281 268532.75)">
		<stop  offset="0" style="stop-color:#5AE6F9"/>
		<stop  offset="1" style="stop-color:#58EAF9"/>
	</linearGradient>
	<path id="Rectangle_39" opacity="0.26" fill="url(#Rectangle_39_1_)" enable-background="new    " d="M2448.921,1112.028
		L2448.921,1112.028c-31.285,34.746-84.814,37.551-119.563,6.266l-496.686-447.219c-34.746-31.285-37.553-84.816-6.268-119.563l0,0
		c31.287-34.746,84.816-37.551,119.563-6.266l496.688,447.219C2477.401,1023.753,2480.206,1077.282,2448.921,1112.028z"/>
	
		<linearGradient id="Rectangle_41_1_" gradientUnits="userSpaceOnUse" x1="240.8716" y1="1056.7441" x2="240.0116" y2="1056.7942" gradientTransform="matrix(-1135.095 -1022.0442 113.2952 -125.827 155505.6563 380126.0938)">
		<stop  offset="0" style="stop-color:#57EDF9"/>
		<stop  offset="1" style="stop-color:#65BFFD"/>
	</linearGradient>
	<path id="Rectangle_41" opacity="0.26" fill="url(#Rectangle_41_1_)" enable-background="new    " d="M2632.202,1707.558
		L2632.202,1707.558c-31.285,34.746-84.814,37.553-119.561,6.266L1503.374,805.075c-34.746-31.285-37.553-84.814-6.266-119.561l0,0
		c31.285-34.746,84.814-37.553,119.561-6.266l1009.268,908.748C2660.683,1619.282,2663.487,1672.812,2632.202,1707.558z"/>
	
		<linearGradient id="Rectangle_40_1_" gradientUnits="userSpaceOnUse" x1="241.1304" y1="1059.7734" x2="239.7524" y2="1059.7815" gradientTransform="matrix(-622.5146 -560.5147 69.3152 -76.9824 78313.7266 217361.2188)">
		<stop  offset="0" style="stop-color:#5AE6F9"/>
		<stop  offset="1" style="stop-color:#58EAF9"/>
	</linearGradient>
	<path id="Rectangle_40" opacity="0.26" fill="url(#Rectangle_40_1_)" enable-background="new    " d="M2448.985,1325.386
		L2448.985,1325.386c-19.141,21.258-51.891,22.975-73.148,3.834l-545.533-491.199c-21.258-19.141-22.973-51.891-3.832-73.148l0,0
		c19.141-21.26,51.891-22.975,73.148-3.834l545.531,491.199C2466.409,1271.378,2468.126,1304.128,2448.985,1325.386z"/>
	
		<linearGradient id="Rectangle_42_1_" gradientUnits="userSpaceOnUse" x1="241.0942" y1="1059.75" x2="240.0342" y2="1060.053" gradientTransform="matrix(-707.2821 -636.8397 67.977 -75.4961 99860.5781 234358.5781)">
		<stop  offset="0" style="stop-color:#5BDEFA"/>
		<stop  offset="1" style="stop-color:#65BDFD"/>
	</linearGradient>
	<path id="Rectangle_42" opacity="0.26" fill="url(#Rectangle_42_1_)" enable-background="new    " d="M2201.753,1530.188
		L2201.753,1530.188c-18.77,20.848-50.889,22.529-71.736,3.758l-631.785-568.861c-20.848-18.771-22.531-50.889-3.76-71.736l0,0
		c18.771-20.848,50.889-22.531,71.736-3.76l631.787,568.863C2218.843,1477.222,2220.524,1509.341,2201.753,1530.188z"/>
</g>
<g id="Group_382" transform="translate(-145 781)" opacity="0.58">
	<circle id="Ellipse_6" opacity="0.55" fill="#FFFFFF" enable-background="new    " cx="1509.359" cy="-567.833" r="9"/>
	
		<ellipse id="Ellipse_41" opacity="0.55" fill="#FFFFFF" enable-background="new    " cx="1509.359" cy="-442.333" rx="9" ry="9.5"/>
	<circle id="Ellipse_21" opacity="0.55" fill="#FFFFFF" enable-background="new    " cx="1509.359" cy="-504.833" r="9"/>
	
		<ellipse id="Ellipse_29" opacity="0.55" fill="#FFFFFF" enable-background="new    " cx="1509.359" cy="-379.333" rx="9" ry="9.5"/>
	
		<ellipse id="Ellipse_11" opacity="0.55" fill="#FFFFFF" enable-background="new    " cx="1509.359" cy="-536.333" rx="9" ry="9.5"/>
	<circle id="Ellipse_36" opacity="0.55" fill="#FFFFFF" enable-background="new    " cx="1509.359" cy="-410.833" r="9"/>
	
		<ellipse id="Ellipse_16" opacity="0.55" fill="#FFFFFF" enable-background="new    " cx="1509.359" cy="-473.333" rx="9" ry="9.5"/>
	<circle id="Ellipse_26" opacity="0.55" fill="#FFFFFF" enable-background="new    " cx="1509.359" cy="-347.833" r="9"/>
	<circle id="Ellipse_8" opacity="0.55" fill="#FFFFFF" enable-background="new    " cx="1447.359" cy="-567.833" r="9"/>
	
		<ellipse id="Ellipse_42" opacity="0.55" fill="#FFFFFF" enable-background="new    " cx="1447.359" cy="-442.333" rx="9" ry="9.5"/>
	<circle id="Ellipse_22" opacity="0.55" fill="#FFFFFF" enable-background="new    " cx="1447.359" cy="-504.833" r="9"/>
	
		<ellipse id="Ellipse_30" opacity="0.55" fill="#FFFFFF" enable-background="new    " cx="1447.359" cy="-379.333" rx="9" ry="9.5"/>
	
		<ellipse id="Ellipse_13" opacity="0.55" fill="#FFFFFF" enable-background="new    " cx="1447.359" cy="-536.333" rx="9" ry="9.5"/>
	<circle id="Ellipse_37" opacity="0.55" fill="#FFFFFF" enable-background="new    " cx="1447.359" cy="-410.833" r="9"/>
	
		<ellipse id="Ellipse_18" opacity="0.55" fill="#FFFFFF" enable-background="new    " cx="1447.359" cy="-473.333" rx="9" ry="9.5"/>
	<circle id="Ellipse_27" opacity="0.55" fill="#FFFFFF" enable-background="new    " cx="1447.359" cy="-347.833" r="9"/>
	<circle id="Ellipse_7" opacity="0.55" fill="#FFFFFF" enable-background="new    " cx="1478.359" cy="-567.833" r="9"/>
	
		<ellipse id="Ellipse_43" opacity="0.55" fill="#FFFFFF" enable-background="new    " cx="1478.359" cy="-442.333" rx="9" ry="9.5"/>
	<circle id="Ellipse_23" opacity="0.55" fill="#FFFFFF" enable-background="new    " cx="1478.359" cy="-504.833" r="9"/>
	
		<ellipse id="Ellipse_31" opacity="0.55" fill="#FFFFFF" enable-background="new    " cx="1478.359" cy="-379.333" rx="9" ry="9.5"/>
	
		<ellipse id="Ellipse_12" opacity="0.55" fill="#FFFFFF" enable-background="new    " cx="1478.359" cy="-536.333" rx="9" ry="9.5"/>
	<circle id="Ellipse_38" opacity="0.55" fill="#FFFFFF" enable-background="new    " cx="1478.359" cy="-410.833" r="9"/>
	
		<ellipse id="Ellipse_17" opacity="0.55" fill="#FFFFFF" enable-background="new    " cx="1478.359" cy="-473.333" rx="9" ry="9.5"/>
	<circle id="Ellipse_28" opacity="0.55" fill="#FFFFFF" enable-background="new    " cx="1478.359" cy="-347.833" r="9"/>
	<circle id="Ellipse_9" opacity="0.55" fill="#FFFFFF" enable-background="new    " cx="1416.359" cy="-567.833" r="9"/>
	
		<ellipse id="Ellipse_44" opacity="0.55" fill="#FFFFFF" enable-background="new    " cx="1416.359" cy="-442.333" rx="9" ry="9.5"/>
	<circle id="Ellipse_24" opacity="0.55" fill="#FFFFFF" enable-background="new    " cx="1416.359" cy="-504.833" r="9"/>
	
		<ellipse id="Ellipse_32" opacity="0.55" fill="#FFFFFF" enable-background="new    " cx="1416.359" cy="-379.333" rx="9" ry="9.5"/>
	
		<ellipse id="Ellipse_14" opacity="0.55" fill="#FFFFFF" enable-background="new    " cx="1416.359" cy="-536.333" rx="9" ry="9.5"/>
	<circle id="Ellipse_39" opacity="0.55" fill="#FFFFFF" enable-background="new    " cx="1416.359" cy="-410.833" r="9"/>
	
		<ellipse id="Ellipse_19" opacity="0.55" fill="#FFFFFF" enable-background="new    " cx="1416.359" cy="-473.333" rx="9" ry="9.5"/>
	<circle id="Ellipse_33" opacity="0.55" fill="#FFFFFF" enable-background="new    " cx="1416.359" cy="-347.833" r="9"/>
	<circle id="Ellipse_10" opacity="0.55" fill="#FFFFFF" enable-background="new    " cx="1385.359" cy="-567.833" r="9"/>
	
		<ellipse id="Ellipse_45" opacity="0.55" fill="#FFFFFF" enable-background="new    " cx="1385.359" cy="-442.333" rx="9" ry="9.5"/>
	<circle id="Ellipse_25" opacity="0.55" fill="#FFFFFF" enable-background="new    " cx="1385.359" cy="-504.833" r="9"/>
	
		<ellipse id="Ellipse_34" opacity="0.55" fill="#FFFFFF" enable-background="new    " cx="1385.359" cy="-379.333" rx="9" ry="9.5"/>
	
		<ellipse id="Ellipse_15" opacity="0.55" fill="#FFFFFF" enable-background="new    " cx="1385.359" cy="-536.333" rx="9" ry="9.5"/>
	<circle id="Ellipse_40" opacity="0.55" fill="#FFFFFF" enable-background="new    " cx="1385.359" cy="-410.833" r="9"/>
	
		<ellipse id="Ellipse_20" opacity="0.55" fill="#FFFFFF" enable-background="new    " cx="1385.359" cy="-473.333" rx="9" ry="9.5"/>
	<circle id="Ellipse_35" opacity="0.55" fill="#FFFFFF" enable-background="new    " cx="1385.359" cy="-347.833" r="9"/>
</g>
</svg>
