<?xml version="1.0" encoding="utf-8"?>
<!-- Generator: Adobe Illustrator 16.0.0, SVG Export Plug-In . SVG Version: 6.00 Build 0)  -->
<!DOCTYPE svg PUBLIC "-//W3C//DTD SVG 1.1//EN" "http://www.w3.org/Graphics/SVG/1.1/DTD/svg11.dtd">
<svg version="1.1" id="Layer_1" xmlns="http://www.w3.org/2000/svg" xmlns:xlink="http://www.w3.org/1999/xlink" x="0px" y="0px"
	 width="1920px" height="1080px" viewBox="0 0 1920 1080" enable-background="new 0 0 1920 1080" xml:space="preserve">
<g>
	<rect x="1.73" fill="none" width="1920" height="1080"/>
	
		<linearGradient id="Rectangle_35_1_" gradientUnits="userSpaceOnUse" x1="886.0952" y1="619.0977" x2="884.7172" y2="619.1057" gradientTransform="matrix(-622.5146 -560.5147 113.2952 -125.827 481473.75 574254.3125)">
		<stop  offset="0" style="stop-color:#5AE6F9"/>
		<stop  offset="1" style="stop-color:#58EAF9"/>
	</linearGradient>
	<path id="Rectangle_35" opacity="0.27" fill="url(#Rectangle_35_1_)" enable-background="new    " d="M791.131,390.285
		L791.131,390.285c-31.285,34.746-84.815,37.551-119.562,6.265L174.883-50.669c-34.746-31.286-37.552-84.815-6.267-119.562l0,0
		c31.286-34.746,84.815-37.551,119.562-6.265l496.687,447.219C819.611,302.009,822.416,355.539,791.131,390.285z"/>
	
		<linearGradient id="Rectangle_37_1_" gradientUnits="userSpaceOnUse" x1="885.8525" y1="619.0879" x2="884.9926" y2="619.1379" gradientTransform="matrix(-1135.095 -1022.0442 113.2952 -125.827 935362.9375 983400.1875)">
		<stop  offset="0" style="stop-color:#57EDF9"/>
		<stop  offset="1" style="stop-color:#65BFFD"/>
	</linearGradient>
	<path id="Rectangle_37" opacity="0.27" fill="url(#Rectangle_37_1_)" enable-background="new    " d="M790.413,851.814
		L790.413,851.814c-31.286,34.746-84.815,37.552-119.562,6.266L-338.416-50.668c-34.746-31.286-37.552-84.815-6.266-119.562l0,0
		c31.285-34.746,84.814-37.552,119.561-6.266L784.146,732.253C818.893,763.539,821.698,817.068,790.413,851.814z"/>
	
		<linearGradient id="Rectangle_36_1_" gradientUnits="userSpaceOnUse" x1="886.0962" y1="621.6973" x2="884.7182" y2="621.7053" gradientTransform="matrix(-622.5146 -560.5147 69.3152 -76.9824 508221.1563 544176.9375)">
		<stop  offset="0" style="stop-color:#5AE6F9"/>
		<stop  offset="1" style="stop-color:#58EAF9"/>
	</linearGradient>
	<path id="Rectangle_36" opacity="0.27" fill="url(#Rectangle_36_1_)" enable-background="new    " d="M491.196,352.642
		L491.196,352.642c-19.142,21.258-51.892,22.975-73.149,3.833l-545.532-491.199c-21.258-19.141-22.975-51.891-3.833-73.149l0,0
		c19.141-21.258,51.891-22.974,73.148-3.833l545.532,491.199C508.62,298.634,510.337,331.384,491.196,352.642z"/>
	
		<linearGradient id="Rectangle_38_1_" gradientUnits="userSpaceOnUse" x1="886.062" y1="621.6523" x2="885.002" y2="621.9553" gradientTransform="matrix(-707.2821 -636.8397 67.977 -75.4961 584195.5 611418.375)">
		<stop  offset="0" style="stop-color:#5BDEFA"/>
		<stop  offset="1" style="stop-color:#65BDFD"/>
	</linearGradient>
	<path id="Rectangle_38" opacity="0.27" fill="url(#Rectangle_38_1_)" enable-background="new    " d="M580.964,922.444
		L580.964,922.444c-18.771,20.848-50.889,22.53-71.736,3.759l-631.786-568.862c-20.848-18.771-22.531-50.889-3.76-71.736l0,0
		c18.771-20.848,50.889-22.531,71.736-3.76l631.786,568.862C598.052,869.479,599.735,901.597,580.964,922.444z"/>
	
		<linearGradient id="Rectangle_39_1_" gradientUnits="userSpaceOnUse" x1="886.0952" y1="619.0977" x2="884.7172" y2="619.1057" gradientTransform="matrix(-622.5146 -560.5147 113.2952 -125.827 482988.75 574988.3125)">
		<stop  offset="0" style="stop-color:#5AE6F9"/>
		<stop  offset="1" style="stop-color:#58EAF9"/>
	</linearGradient>
	<path id="Rectangle_39" opacity="0.26" fill="url(#Rectangle_39_1_)" enable-background="new    " d="M2306.131,1124.284
		L2306.131,1124.284c-31.285,34.746-84.814,37.552-119.562,6.266l-496.687-447.219c-34.746-31.285-37.553-84.815-6.267-119.562l0,0
		c31.286-34.746,84.815-37.551,119.562-6.266l496.688,447.219C2334.611,1036.009,2337.416,1089.538,2306.131,1124.284z"/>
	
		<linearGradient id="Rectangle_41_1_" gradientUnits="userSpaceOnUse" x1="885.853" y1="619.0879" x2="884.9935" y2="619.1379" gradientTransform="matrix(-1135.095 -1022.0442 113.2952 -125.827 937061.9375 984268.1875)">
		<stop  offset="0" style="stop-color:#57EDF9"/>
		<stop  offset="1" style="stop-color:#65BFFD"/>
	</linearGradient>
	<path id="Rectangle_41" opacity="0.26" fill="url(#Rectangle_41_1_)" enable-background="new    " d="M2489.413,1719.814
		L2489.413,1719.814c-31.286,34.746-84.815,37.552-119.562,6.266L1360.584,817.332c-34.746-31.286-37.552-84.815-6.266-119.562l0,0
		c31.285-34.746,84.814-37.552,119.562-6.266l1009.267,908.748C2517.893,1631.539,2520.698,1685.068,2489.413,1719.814z"/>
	
		<linearGradient id="Rectangle_40_1_" gradientUnits="userSpaceOnUse" x1="886.0952" y1="621.6973" x2="884.7172" y2="621.7053" gradientTransform="matrix(-622.5146 -560.5147 69.3152 -76.9824 510036.1563 545161.9375)">
		<stop  offset="0" style="stop-color:#5AE6F9"/>
		<stop  offset="1" style="stop-color:#58EAF9"/>
	</linearGradient>
	<path id="Rectangle_40" opacity="0.26" fill="url(#Rectangle_40_1_)" enable-background="new    " d="M2306.195,1337.643
		L2306.195,1337.643c-19.141,21.258-51.891,22.974-73.148,3.833l-545.532-491.199c-21.258-19.141-22.974-51.891-3.833-73.148l0,0
		c19.141-21.259,51.891-22.975,73.148-3.834l545.532,491.199C2323.62,1283.635,2325.337,1316.384,2306.195,1337.643z"/>
	
		<linearGradient id="Rectangle_42_1_" gradientUnits="userSpaceOnUse" x1="886.062" y1="621.6523" x2="885.002" y2="621.9553" gradientTransform="matrix(-707.2821 -636.8397 67.977 -75.4961 585673.5 612038.375)">
		<stop  offset="0" style="stop-color:#5BDEFA"/>
		<stop  offset="1" style="stop-color:#65BDFD"/>
	</linearGradient>
	<path id="Rectangle_42" opacity="0.26" fill="url(#Rectangle_42_1_)" enable-background="new    " d="M2058.964,1542.444
		L2058.964,1542.444c-18.771,20.848-50.889,22.53-71.736,3.759l-631.786-568.862c-20.848-18.771-22.531-50.889-3.76-71.736l0,0
		c18.771-20.848,50.889-22.531,71.736-3.76l631.787,568.863C2076.053,1489.479,2077.735,1521.597,2058.964,1542.444z"/>
	<g id="Group_382" transform="translate(-145 781)" opacity="0.58">
		<circle id="Ellipse_6" opacity="0.55" fill="#FFFFFF" enable-background="new    " cx="1466.73" cy="-611" r="9"/>
		<ellipse id="Ellipse_41" opacity="0.55" fill="#FFFFFF" enable-background="new    " cx="1466.73" cy="-485.5" rx="9" ry="9.5"/>
		<circle id="Ellipse_21" opacity="0.55" fill="#FFFFFF" enable-background="new    " cx="1466.73" cy="-548" r="9"/>
		<ellipse id="Ellipse_29" opacity="0.55" fill="#FFFFFF" enable-background="new    " cx="1466.73" cy="-422.5" rx="9" ry="9.5"/>
		<ellipse id="Ellipse_11" opacity="0.55" fill="#FFFFFF" enable-background="new    " cx="1466.73" cy="-579.5" rx="9" ry="9.5"/>
		<circle id="Ellipse_36" opacity="0.55" fill="#FFFFFF" enable-background="new    " cx="1466.73" cy="-454" r="9"/>
		<ellipse id="Ellipse_16" opacity="0.55" fill="#FFFFFF" enable-background="new    " cx="1466.73" cy="-516.5" rx="9" ry="9.5"/>
		<circle id="Ellipse_26" opacity="0.55" fill="#FFFFFF" enable-background="new    " cx="1466.73" cy="-391" r="9"/>
		<circle id="Ellipse_8" opacity="0.55" fill="#FFFFFF" enable-background="new    " cx="1404.73" cy="-611" r="9"/>
		<ellipse id="Ellipse_42" opacity="0.55" fill="#FFFFFF" enable-background="new    " cx="1404.73" cy="-485.5" rx="9" ry="9.5"/>
		<circle id="Ellipse_22" opacity="0.55" fill="#FFFFFF" enable-background="new    " cx="1404.73" cy="-548" r="9"/>
		<ellipse id="Ellipse_30" opacity="0.55" fill="#FFFFFF" enable-background="new    " cx="1404.73" cy="-422.5" rx="9" ry="9.5"/>
		<ellipse id="Ellipse_13" opacity="0.55" fill="#FFFFFF" enable-background="new    " cx="1404.73" cy="-579.5" rx="9" ry="9.5"/>
		<circle id="Ellipse_37" opacity="0.55" fill="#FFFFFF" enable-background="new    " cx="1404.73" cy="-454" r="9"/>
		<ellipse id="Ellipse_18" opacity="0.55" fill="#FFFFFF" enable-background="new    " cx="1404.73" cy="-516.5" rx="9" ry="9.5"/>
		<circle id="Ellipse_27" opacity="0.55" fill="#FFFFFF" enable-background="new    " cx="1404.73" cy="-391" r="9"/>
		<circle id="Ellipse_7" opacity="0.55" fill="#FFFFFF" enable-background="new    " cx="1435.73" cy="-611" r="9"/>
		<ellipse id="Ellipse_43" opacity="0.55" fill="#FFFFFF" enable-background="new    " cx="1435.73" cy="-485.5" rx="9" ry="9.5"/>
		<circle id="Ellipse_23" opacity="0.55" fill="#FFFFFF" enable-background="new    " cx="1435.73" cy="-548" r="9"/>
		<ellipse id="Ellipse_31" opacity="0.55" fill="#FFFFFF" enable-background="new    " cx="1435.73" cy="-422.5" rx="9" ry="9.5"/>
		<ellipse id="Ellipse_12" opacity="0.55" fill="#FFFFFF" enable-background="new    " cx="1435.73" cy="-579.5" rx="9" ry="9.5"/>
		<circle id="Ellipse_38" opacity="0.55" fill="#FFFFFF" enable-background="new    " cx="1435.73" cy="-454" r="9"/>
		<ellipse id="Ellipse_17" opacity="0.55" fill="#FFFFFF" enable-background="new    " cx="1435.73" cy="-516.5" rx="9" ry="9.5"/>
		<circle id="Ellipse_28" opacity="0.55" fill="#FFFFFF" enable-background="new    " cx="1435.73" cy="-391" r="9"/>
		<circle id="Ellipse_9" opacity="0.55" fill="#FFFFFF" enable-background="new    " cx="1373.73" cy="-611" r="9"/>
		<ellipse id="Ellipse_44" opacity="0.55" fill="#FFFFFF" enable-background="new    " cx="1373.73" cy="-485.5" rx="9" ry="9.5"/>
		<circle id="Ellipse_24" opacity="0.55" fill="#FFFFFF" enable-background="new    " cx="1373.73" cy="-548" r="9"/>
		<ellipse id="Ellipse_32" opacity="0.55" fill="#FFFFFF" enable-background="new    " cx="1373.73" cy="-422.5" rx="9" ry="9.5"/>
		<ellipse id="Ellipse_14" opacity="0.55" fill="#FFFFFF" enable-background="new    " cx="1373.73" cy="-579.5" rx="9" ry="9.5"/>
		<circle id="Ellipse_39" opacity="0.55" fill="#FFFFFF" enable-background="new    " cx="1373.73" cy="-454" r="9"/>
		<ellipse id="Ellipse_19" opacity="0.55" fill="#FFFFFF" enable-background="new    " cx="1373.73" cy="-516.5" rx="9" ry="9.5"/>
		<circle id="Ellipse_33" opacity="0.55" fill="#FFFFFF" enable-background="new    " cx="1373.73" cy="-391" r="9"/>
		<circle id="Ellipse_10" opacity="0.55" fill="#FFFFFF" enable-background="new    " cx="1342.73" cy="-611" r="9"/>
		<ellipse id="Ellipse_45" opacity="0.55" fill="#FFFFFF" enable-background="new    " cx="1342.73" cy="-485.5" rx="9" ry="9.5"/>
		<circle id="Ellipse_25" opacity="0.55" fill="#FFFFFF" enable-background="new    " cx="1342.73" cy="-548" r="9"/>
		<ellipse id="Ellipse_34" opacity="0.55" fill="#FFFFFF" enable-background="new    " cx="1342.73" cy="-422.5" rx="9" ry="9.5"/>
		<ellipse id="Ellipse_15" opacity="0.55" fill="#FFFFFF" enable-background="new    " cx="1342.73" cy="-579.5" rx="9" ry="9.5"/>
		<circle id="Ellipse_40" opacity="0.55" fill="#FFFFFF" enable-background="new    " cx="1342.73" cy="-454" r="9"/>
		<ellipse id="Ellipse_20" opacity="0.55" fill="#FFFFFF" enable-background="new    " cx="1342.73" cy="-516.5" rx="9" ry="9.5"/>
		<circle id="Ellipse_35" opacity="0.55" fill="#FFFFFF" enable-background="new    " cx="1342.73" cy="-391" r="9"/>
	</g>
</g>
</svg>
