<?xml version="1.0" encoding="utf-8"?>
<!-- Generator: Adobe Illustrator 16.0.0, SVG Export Plug-In . SVG Version: 6.00 Build 0)  -->
<!DOCTYPE svg PUBLIC "-//W3C//DTD SVG 1.1//EN" "http://www.w3.org/Graphics/SVG/1.1/DTD/svg11.dtd">
<svg version="1.1" id="Layer_1" xmlns="http://www.w3.org/2000/svg" xmlns:xlink="http://www.w3.org/1999/xlink" x="0px" y="0px"
	 width="1920px" height="1080px" viewBox="0 0 1920 1080" enable-background="new 0 0 1920 1080" xml:space="preserve">
<g opacity="0.2">
	<g>
		
			<linearGradient id="Rectangle_35_1_" gradientUnits="userSpaceOnUse" x1="1551.25" y1="1062.207" x2="869.6988" y2="1022.582" gradientTransform="matrix(1 0 0 -1 234 1225)">
			<stop  offset="0" style="stop-color:#00D0ED"/>
			<stop  offset="1" style="stop-color:#0F8BE5"/>
		</linearGradient>
		<path id="Rectangle_35_8_" fill="url(#Rectangle_35_1_)" d="M1143.202,341.342l490.63-441.766
			c34.322-30.903,87.199-28.132,118.104,6.19l0,0c30.903,34.323,28.132,87.199-6.191,118.104l-490.63,441.764
			c-34.322,30.905-87.199,28.133-118.104-6.188l0,0C1106.108,425.123,1108.879,372.246,1143.202,341.342z"/>
		
			<linearGradient id="Rectangle_37_1_" gradientUnits="userSpaceOnUse" x1="2070.6455" y1="849.6934" x2="858.0526" y2="779.1938" gradientTransform="matrix(1 0 0 -1 234 1225)">
			<stop  offset="0" style="stop-color:#00D0ED"/>
			<stop  offset="1" style="stop-color:#0F8BE5"/>
		</linearGradient>
		<path id="Rectangle_37_8_" fill="url(#Rectangle_37_1_)" d="M1143.911,797.243l996.961-897.667
			c34.322-30.904,87.198-28.132,118.104,6.19l0,0c30.904,34.322,28.132,87.198-6.19,118.104l-996.961,897.667
			c-34.322,30.903-87.198,28.131-118.104-6.189l0,0C1106.817,881.025,1109.589,828.148,1143.911,797.243z"/>
		
			<linearGradient id="Rectangle_36_1_" gradientUnits="userSpaceOnUse" x1="1840.4199" y1="1098.9766" x2="1173.084" y2="1060.178" gradientTransform="matrix(1 0 0 -1 234 1225)">
			<stop  offset="0" style="stop-color:#00D0ED"/>
			<stop  offset="1" style="stop-color:#0F8BE5"/>
		</linearGradient>
		<path id="Rectangle_36_8_" fill="url(#Rectangle_36_1_)" d="M1437.076,350.005l538.88-485.209
			c20.999-18.908,53.35-17.212,72.256,3.786l0,0c18.908,20.999,17.212,53.349-3.786,72.257l-538.879,485.209
			c-21,18.908-53.351,17.212-72.258-3.786l0,0C1414.383,401.263,1416.078,368.912,1437.076,350.005z"/>
		
			<linearGradient id="Rectangle_38_1_" gradientUnits="userSpaceOnUse" x1="1837.3066" y1="576.3613" x2="1082.5822" y2="532.482" gradientTransform="matrix(1 0 0 -1 234 1225)">
			<stop  offset="0" style="stop-color:#00D0ED"/>
			<stop  offset="1" style="stop-color:#0F8BE5"/>
		</linearGradient>
		<path id="Rectangle_38_8_" fill="url(#Rectangle_38_1_)" d="M1348.33,914.254l624.082-561.926
			c20.594-18.542,52.319-16.879,70.86,3.714l0,0c18.543,20.594,16.88,52.319-3.714,70.861l-624.082,561.926
			c-20.593,18.541-52.318,16.88-70.861-3.714l0,0C1326.074,964.521,1327.736,932.796,1348.33,914.254z"/>
	</g>
</g>
<linearGradient id="Rectangle_39_1_" gradientUnits="userSpaceOnUse" x1="-624.6416" y1="321.9512" x2="33.2437" y2="321.9512" gradientTransform="matrix(1 0 0 -1 234 1225)">
	<stop  offset="0" style="stop-color:#00D0ED"/>
	<stop  offset="1" style="stop-color:#0F8BE5"/>
</linearGradient>
<path id="Rectangle_39" opacity="0.2" fill="url(#Rectangle_39_1_)" enable-background="new    " d="M-362.971,1061.784
	l490.63-441.766c34.322-30.903,87.199-28.132,118.104,6.189l0,0c30.904,34.322,28.133,87.2-6.191,118.104l-490.63,441.766
	c-34.324,30.904-87.2,28.133-118.104-6.189l0,0C-400.065,1145.565-397.294,1092.688-362.971,1061.784z"/>
<linearGradient id="Rectangle_41_1_" gradientUnits="userSpaceOnUse" x1="-805.689" y1="-38.3662" x2="358.5264" y2="-38.3662" gradientTransform="matrix(1 0 0 -1 234 1225)">
	<stop  offset="0" style="stop-color:#00D0ED"/>
	<stop  offset="1" style="stop-color:#0F8BE5"/>
</linearGradient>
<path id="Rectangle_41" opacity="0.2" fill="url(#Rectangle_41_1_)" enable-background="new    " d="M-544.019,1650.053
	l996.959-897.667c34.323-30.904,87.2-28.132,118.104,6.19l0,0c30.905,34.321,28.132,87.197-6.189,118.104l-996.962,897.666
	c-34.322,30.904-87.199,28.132-118.104-6.189l0,0C-581.112,1733.834-578.342,1680.957-544.019,1650.053z"/>
<linearGradient id="Rectangle_40_1_" gradientUnits="userSpaceOnUse" x1="841.2842" y1="-9.542" x2="839.923" y2="-9.55" gradientTransform="matrix(622.5146 -560.5147 69.3152 76.9824 -522644.9688 472980.6875)">
	<stop  offset="0" style="stop-color:#00D0ED"/>
	<stop  offset="1" style="stop-color:#0F8BE5"/>
</linearGradient>
<path id="Rectangle_40" opacity="0.2" fill="url(#Rectangle_40_1_)" enable-background="new    " d="M-365.439,1318.387
	L173.44,833.178c20.999-18.907,53.35-17.213,72.257,3.787l0,0c18.908,20.998,17.211,53.349-3.787,72.256l-538.879,485.209
	c-20.999,18.908-53.35,17.213-72.257-3.786l0,0C-388.133,1369.645-386.438,1337.294-365.439,1318.387z"/>
<linearGradient id="Rectangle_42_1_" gradientUnits="userSpaceOnUse" x1="841.2891" y1="-9.6084" x2="840.2412" y2="-9.9079" gradientTransform="matrix(707.2821 -636.8397 67.977 75.4961 -593686.25 537375.5625)">
	<stop  offset="0" style="stop-color:#00D0ED"/>
	<stop  offset="1" style="stop-color:#0F8BE5"/>
</linearGradient>
<path id="Rectangle_42" opacity="0.2" fill="url(#Rectangle_42_1_)" enable-background="new    " d="M-121.295,1522.087
	l624.083-561.926c20.594-18.542,52.32-16.88,70.861,3.715l0,0c18.543,20.593,16.88,52.318-3.714,70.86l-624.082,561.926
	c-20.594,18.542-52.319,16.88-70.861-3.713l0,0C-143.551,1572.355-141.889,1540.629-121.295,1522.087z"/>
<image overflow="visible" enable-background="new    " width="1601" height="652" xlink:href="F5EDE6F4.jpg"  transform="matrix(0.9992 0 0 0.9992 2193.334 657.0391)">
</image>
</svg>
