<?xml version="1.0" encoding="utf-8"?>
<!-- Generator: Adobe Illustrator 16.0.0, SVG Export Plug-In . SVG Version: 6.00 Build 0)  -->
<!DOCTYPE svg PUBLIC "-//W3C//DTD SVG 1.1//EN" "http://www.w3.org/Graphics/SVG/1.1/DTD/svg11.dtd">
<svg version="1.1" id="Layer_1" xmlns="http://www.w3.org/2000/svg" xmlns:xlink="http://www.w3.org/1999/xlink" x="0px" y="0px"
	 width="61px" height="61px" viewBox="0 0 61 61" enable-background="new 0 0 61 61" xml:space="preserve">
<path fill-rule="evenodd" clip-rule="evenodd" fill="none" stroke="#0092CE" stroke-width="3" stroke-linecap="round" stroke-linejoin="round" stroke-miterlimit="10" d="
	M58.854,29.52c-7.596-5.899-18.238-14.86-25.832-20.767c-0.645-0.499-1.221-1.076-1.861-1.572c-0.749-0.576-1.563-0.584-2.309-0.003
	C20.634,13.596,10.398,23.092,2.185,29.52"/>
<path fill="none" stroke="#0092CE" stroke-width="3" stroke-linecap="round" stroke-linejoin="round" stroke-miterlimit="10" d="
	M49.939,33.838c0,7.355-0.165,14.854-0.114,20.214c0.016,1.984-0.616,4.448-2.657,4.448h0.176H36H24.917
	c-3.982,0-8.279-0.197-12.047-0.313c-1.386-0.043-1.557-2.811-1.492-4.344c0.076-1.792,0.047-3.85,0.013-5.646
	c-0.019-1.333-0.235-8.26-0.208-14.517"/>
<path fill-rule="evenodd" clip-rule="evenodd" fill="none" stroke="#0092CE" stroke-width="3" stroke-linecap="round" stroke-linejoin="round" stroke-miterlimit="10" d="
	M133.814,22.52c-7.596-5.899-18.238-14.86-25.832-20.767c-0.645-0.499-1.221-1.076-1.861-1.572c-0.75-0.576-1.563-0.584-2.309-0.003
	C95.594,6.596,85.358,16.092,77.145,22.52"/>
<path fill="none" stroke="#0092CE" stroke-width="3" stroke-linecap="round" stroke-linejoin="round" stroke-miterlimit="10" d="
	M124.777,26.839c0,6.374-0.094,12.86-0.033,19.233c0.016,1.989-0.535,3.428-2.576,3.428h0.176h-11.668l-0.176-0.669V33.896l0,0
	c0-1.379-0.269-1.551-1.56-1.512c-2.198,0.067-4.313-0.033-7.226-0.051c-1.433-0.009-1.617-0.125-1.617,1.875
	c0,3.325-0.051,11.138-0.051,14.67c-3.982,0-7.749,0.074-11.518-0.042c-1.385-0.042-2.217-0.919-2.151-2.456
	c0.076-1.797,0.047-3.602,0.013-5.403c-0.033-2.336-0.23-9.151-0.208-14.425"/>
</svg>
