<svg xmlns="http://www.w3.org/2000/svg" width="38.061" height="38.061" viewBox="0 0 38.061 38.061">
  <g id="Group_7" data-name="Group 7" transform="translate(-202.126 -128.505)">
    <path id="Path_33" data-name="Path 33" d="M229.29,141.382a3.449,3.449,0,0,0-1.98-1.98,5.781,5.781,0,0,0-1.937-.36c-1.1-.05-1.431-.061-4.217-.061s-3.116.011-4.216.061a5.789,5.789,0,0,0-1.938.36,3.456,3.456,0,0,0-1.98,1.98,5.762,5.762,0,0,0-.359,1.937c-.05,1.1-.061,1.431-.061,4.217s.011,3.116.061,4.216a5.763,5.763,0,0,0,.359,1.938,3.456,3.456,0,0,0,1.98,1.98,5.769,5.769,0,0,0,1.938.359c1.1.05,1.43.061,4.216.061s3.116-.011,4.217-.061a5.762,5.762,0,0,0,1.937-.359,3.449,3.449,0,0,0,1.98-1.98,5.782,5.782,0,0,0,.36-1.938c.05-1.1.061-1.43.061-4.216s-.011-3.116-.061-4.217A5.781,5.781,0,0,0,229.29,141.382Zm-8.134,11.512a5.358,5.358,0,1,1,5.358-5.358A5.358,5.358,0,0,1,221.156,152.894Zm5.57-9.676a1.252,1.252,0,1,1,1.252-1.252A1.253,1.253,0,0,1,226.726,143.218Z" fill="#fff"/>
    <path id="Path_34" data-name="Path 34" d="M221.156,144.058a3.478,3.478,0,1,0,3.478,3.478A3.478,3.478,0,0,0,221.156,144.058Z" fill="#fff"/>
    <path id="Path_35" data-name="Path 35" d="M221.156,128.505a19.03,19.03,0,0,0-19.03,19.031h0a19.03,19.03,0,0,0,38.061,0h0A19.03,19.03,0,0,0,221.156,128.505Zm10.372,23.333a7.666,7.666,0,0,1-.485,2.533,5.341,5.341,0,0,1-3.052,3.052,7.692,7.692,0,0,1-2.533.485c-1.113.05-1.468.062-4.3.062s-3.189-.012-4.3-.062a7.7,7.7,0,0,1-2.533-.485,5.336,5.336,0,0,1-3.051-3.052,7.64,7.64,0,0,1-.485-2.533c-.051-1.113-.063-1.468-.063-4.3s.012-3.189.063-4.3a7.64,7.64,0,0,1,.485-2.533,5.336,5.336,0,0,1,3.051-3.052,7.672,7.672,0,0,1,2.533-.485c1.113-.05,1.468-.063,4.3-.063s3.189.013,4.3.063a7.666,7.666,0,0,1,2.533.485,5.341,5.341,0,0,1,3.052,3.052,7.666,7.666,0,0,1,.485,2.533c.051,1.113.063,1.468.063,4.3S231.579,150.725,231.528,151.838Z" fill="#fff"/>
  </g>
</svg>
