<svg xmlns="http://www.w3.org/2000/svg" width="277.012" height="66.294" viewBox="0 0 277.012 66.294">
  <g id="Group_238" data-name="Group 238" transform="translate(-556.338 -525.549)">
    <g id="Group_1" data-name="Group 1" transform="translate(556.338 525.549)">
      <path id="Path_1" data-name="Path 1" d="M590.714,649.89a5.9,5.9,0,0,0-5.9,5.728,21.968,21.968,0,0,1-7.862,1.3,4.167,4.167,0,0,0-7.451-1.9,21.763,21.763,0,0,1-7.9-7.127,2.946,2.946,0,1,0-1.556,1.026,24.177,24.177,0,0,0,8.642,8.129,4.254,4.254,0,0,0-.028.478,4.167,4.167,0,0,0,7.654,2.281,35.243,35.243,0,0,0,10.529.441,5.9,5.9,0,1,0,3.866-10.361Z" transform="translate(-556.338 -602.862)" fill="#0092ce"/>
      <path id="Path_2" data-name="Path 2" d="M672.884,576.163a5.9,5.9,0,0,0,7.993,1.928,21.962,21.962,0,0,1,5.3,5.951,4.167,4.167,0,0,0,2.377,7.312,21.76,21.76,0,0,1-1.809,10.481,2.949,2.949,0,1,0,1.7.768,24.176,24.176,0,0,0,2.257-11.648,4.166,4.166,0,0,0-1.74-7.92,35.236,35.236,0,0,0-5.251-9.138,5.9,5.9,0,1,0-10.825,2.265Z" transform="translate(-632.377 -552.877)" fill="#0092ce"/>
      <path id="Path_3" data-name="Path 3" d="M583.267,555.465a5.9,5.9,0,0,0-2.018-7.971,21.963,21.963,0,0,1,2.8-7.462,4.167,4.167,0,0,0,5.363-5.51,21.766,21.766,0,0,1,10.117-3.282,2.948,2.948,0,1,0-.112-1.86,24.175,24.175,0,0,0-11.358,3.429,4.24,4.24,0,0,0-.4-.263,4.166,4.166,0,0,0-5.8,5.493,35.232,35.232,0,0,0-5.639,8.9,5.9,5.9,0,1,0,7.047,8.523Z" transform="translate(-566.8 -526.63)" fill="#0092ce"/>
      <path id="Path_4" data-name="Path 4" d="M614.774,579.048s-2.257-27.779,26.216-29.341c0,0-29.168-5.556-30.9,29.341Z" transform="translate(-591.682 -541.222)" fill="#020f2b"/>
      <path id="Path_5" data-name="Path 5" d="M595.946,619.133s-22.572,16.349-38.687-7.177c0,0,10.392,27.814,41.12,11.184Z" transform="translate(-556.944 -582.37)" fill="#020f2b"/>
      <path id="Path_6" data-name="Path 6" d="M645.56,586.976s25.164,11.982,12.232,37.4c0,0,19.437-22.446-9.881-41.453Z" transform="translate(-615.01 -563.277)" fill="#020f2b"/>
      <path id="Path_7" data-name="Path 7" d="M712,569.055s16.328,14.53,7.383,30.5c0,0,12.931-14.032-4.084-32.451Z" transform="translate(-658.702 -552.877)" fill="#020f2b"/>
      <path id="Path_8" data-name="Path 8" d="M563.172,547.271s4.643-21.358,22.95-21.406c0,0-18.573-4.377-26.267,19.488Z" transform="translate(-558.651 -525.549)" fill="#020f2b"/>
      <path id="Path_9" data-name="Path 9" d="M597.785,688.695s-20.572,7.385-30.317-8.113c0,0,6.134,18.068,30.449,11.941Z" transform="translate(-563.657 -627.498)" fill="#020f2b"/>
    </g>
    <g id="Group_3" data-name="Group 3" transform="translate(637.77 536.451)">
      <path id="Path_10" data-name="Path 10" d="M799.258,560.095V582.42h13.9v4.712h-19V560.095Z" transform="translate(-794.16 -559.168)" fill="#020f2b"/>
      <path id="Path_11" data-name="Path 11" d="M880.162,587.132H859.923V560.095h20.239v4.944H864.983v6.218h14.638v4.75H864.983v6.1h15.179Z" transform="translate(-837.405 -559.168)" fill="#020f2b"/>
      <path id="Path_12" data-name="Path 12" d="M939.11,564.73h-8.575v-4.635h22.248v4.635h-8.574v22.4h-5.1Z" transform="translate(-883.839 -559.168)" fill="#020f2b"/>
      <path id="Path_13" data-name="Path 13" d="M1041.037,564.842c-.927-1.545-3.476-3.013-6.412-3.013-3.785,0-5.6,1.584-5.6,3.592,0,2.356,2.781,3.013,6.025,3.4,5.639.7,10.892,2.163,10.892,8.613,0,6.025-5.33,8.613-11.355,8.613-5.524,0-9.772-1.7-11.781-6.643l4.249-2.2c1.2,2.974,4.326,4.287,7.609,4.287,3.206,0,6.218-1.12,6.218-4.056,0-2.549-2.665-3.592-6.257-3.978-5.523-.657-10.621-2.124-10.621-8.188,0-5.562,5.485-7.841,10.467-7.879,4.21,0,8.574,1.2,10.621,5.369Z" transform="translate(-944.516 -557.388)" fill="#020f2b"/>
      <path id="Path_14" data-name="Path 14" d="M1171.167,560.208V575.7c0,8-4.905,12.089-11.7,12.089-6.489,0-12.012-3.94-12.012-12.089V560.208h5.06V575.7c0,4.867,2.781,7.455,6.991,7.455s6.6-2.82,6.6-7.455V560.208Z" transform="translate(-1026.482 -559.242)" fill="#0092ce"/>
      <path id="Path_15" data-name="Path 15" d="M1244.982,564.842c-.927-1.545-3.476-3.013-6.411-3.013-3.785,0-5.6,1.584-5.6,3.592,0,2.356,2.781,3.013,6.025,3.4,5.639.7,10.892,2.163,10.892,8.613,0,6.025-5.33,8.613-11.355,8.613-5.523,0-9.772-1.7-11.78-6.643l4.248-2.2c1.2,2.974,4.326,4.287,7.609,4.287,3.206,0,6.219-1.12,6.219-4.056,0-2.549-2.665-3.592-6.257-3.978-5.523-.657-10.622-2.124-10.622-8.188,0-5.562,5.485-7.841,10.467-7.879,4.21,0,8.575,1.2,10.622,5.369Z" transform="translate(-1078.629 -557.388)" fill="#0092ce"/>
      <path id="Path_16" data-name="Path 16" d="M1325.839,587.132H1305.6V560.095h20.239v4.944H1310.66v6.218H1325.3v4.75H1310.66v6.1h15.179Z" transform="translate(-1130.479 -559.168)" fill="#0092ce"/>
      <rect id="Rectangle_1" data-name="Rectangle 1" width="3.69" height="9.072" transform="translate(72.181 0)" fill="#020f2b"/>
      <rect id="Rectangle_2" data-name="Rectangle 2" width="159.691" height="2.278" transform="translate(0 35.962)" fill="#020f2b"/>
      <g id="Group_2" data-name="Group 2" transform="translate(165.349 32.153)">
        <path id="Path_17" data-name="Path 17" d="M1285.61,656a4.535,4.535,0,0,1-4.787,4.87h-3.762V651.29h3.762A4.522,4.522,0,0,1,1285.61,656Zm-6.758,3.133h1.97a3.065,3.065,0,0,0,0-6.128h-1.97Z" transform="translate(-1277.06 -651.29)" fill="#1a1818"/>
        <path id="Path_18" data-name="Path 18" d="M1310.183,659.244h1.6v6.744h-1.573l-.082-.985a2.566,2.566,0,0,1-2.189,1.19,3.558,3.558,0,0,1,.041-7.114,2.476,2.476,0,0,1,2.148,1.095Zm-4.049,3.365a1.932,1.932,0,0,0,2,2.052c2.627,0,2.627-4.09,0-4.09A1.92,1.92,0,0,0,1306.134,662.609Z" transform="translate(-1295.081 -656.413)" fill="#1a1818"/>
        <path id="Path_19" data-name="Path 19" d="M1330.365,654.006v1.915h1.86v1.436h-1.874v2.914a.838.838,0,0,0,.875.958,1.9,1.9,0,0,0,.807-.205l.465,1.423a3.716,3.716,0,0,1-1.382.287,2.179,2.179,0,0,1-2.421-2.462v-2.914h-1.258v-1.436h1.258v-1.737Z" transform="translate(-1310.188 -653.076)" fill="#1a1818"/>
        <path id="Path_20" data-name="Path 20" d="M1349.695,659.244h1.6v6.744h-1.573l-.082-.985a2.564,2.564,0,0,1-2.189,1.19,3.558,3.558,0,0,1,.041-7.114,2.475,2.475,0,0,1,2.148,1.095Zm-4.049,3.365a1.932,1.932,0,0,0,2,2.052c2.626,0,2.626-4.09,0-4.09A1.921,1.921,0,0,0,1345.646,662.609Z" transform="translate(-1321.064 -656.413)" fill="#1a1818"/>
      </g>
    </g>
  </g>
</svg>
