<svg width="1440" height="955" viewBox="0 0 1440 955" fill="none" xmlns="http://www.w3.org/2000/svg">
<g clip-path="url(#clip0_2_56)">
<path opacity="0.27" d="M151.327 -156.068L590.584 239.389C621.313 267.054 623.794 314.388 596.126 345.113C568.458 375.837 521.118 378.318 490.389 350.653L51.1313 -44.8043C20.4025 -72.469 17.9214 -119.803 45.5896 -150.528C73.2578 -181.252 120.598 -183.733 151.327 -156.068Z" fill="url(#paint0_linear_2_56)"/>
<path opacity="0.27" d="M-302.622 -156.068L589.949 647.502C620.678 675.166 623.159 722.5 595.491 753.225C567.823 783.95 520.483 786.43 489.754 758.765L-402.817 -44.8039C-433.546 -72.4686 -436.027 -119.803 -408.359 -150.527C-380.691 -181.252 -333.35 -183.732 -302.622 -156.068Z" fill="url(#paint1_linear_2_56)"/>
<path opacity="0.27" d="M-154.974 -187.203L327.481 247.145C346.281 264.07 347.799 293.03 330.871 311.827C313.943 330.625 284.98 332.143 266.18 315.217L-216.275 -119.131C-235.075 -136.056 -236.593 -165.015 -219.665 -183.813C-202.737 -202.611 -173.774 -204.128 -154.974 -187.203Z" fill="url(#paint2_linear_2_56)"/>
<path opacity="0.27" d="M-151.801 249.224L406.935 752.246C425.372 768.845 426.861 797.245 410.26 815.68C393.659 834.114 365.255 835.603 346.818 819.004L-211.918 315.982C-230.355 299.383 -231.844 270.983 -215.243 252.548C-198.642 234.113 -170.238 232.625 -151.801 249.224Z" fill="url(#paint3_linear_2_56)"/>
<path opacity="0.26" d="M1491.15 492.978L1930.41 888.436C1961.14 916.1 1963.62 963.434 1935.95 994.159C1908.29 1024.88 1860.95 1027.36 1830.22 999.699L1390.96 604.242C1360.23 576.577 1357.75 529.243 1385.42 498.519C1413.09 467.794 1460.43 465.314 1491.15 492.978Z" fill="url(#paint4_linear_2_56)"/>
<path opacity="0.26" d="M1199.93 611.47L2092.5 1415.04C2123.23 1442.7 2125.71 1490.04 2098.04 1520.76C2070.38 1551.49 2023.04 1553.97 1992.31 1526.3L1099.74 722.733C1069.01 695.068 1066.53 647.735 1094.19 617.01C1121.86 586.285 1169.2 583.805 1199.93 611.47Z" fill="url(#paint5_linear_2_56)"/>
<path opacity="0.26" d="M1450.17 683.792L1932.62 1118.14C1951.42 1135.07 1952.94 1164.02 1936.01 1182.82C1919.08 1201.62 1890.12 1203.14 1871.32 1186.21L1388.87 751.865C1370.07 734.939 1368.55 705.98 1385.48 687.182C1402.4 668.384 1431.37 666.867 1450.17 683.792Z" fill="url(#paint6_linear_2_56)"/>
<path opacity="0.26" d="M1155.31 797.464L1714.04 1300.49C1732.48 1317.09 1733.97 1345.49 1717.37 1363.92C1700.76 1382.36 1672.36 1383.84 1653.92 1367.24L1095.19 864.223C1076.75 847.624 1075.26 819.224 1091.86 800.789C1108.46 782.354 1136.87 780.866 1155.31 797.464Z" fill="url(#paint7_linear_2_56)"/>
<g opacity="0.58">
<path opacity="0.55" d="M1065.37 158.282C1060.98 158.282 1057.42 154.719 1057.42 150.324C1057.42 145.929 1060.98 142.366 1065.37 142.366C1069.77 142.366 1073.33 145.929 1073.33 150.324C1073.33 154.719 1069.77 158.282 1065.37 158.282Z" fill="white"/>
<path opacity="0.55" d="M1065.37 269.699C1060.98 269.699 1057.42 265.938 1057.42 261.299C1057.42 256.659 1060.98 252.898 1065.37 252.898C1069.77 252.898 1073.33 256.659 1073.33 261.299C1073.33 265.938 1069.77 269.699 1065.37 269.699Z" fill="white"/>
<path opacity="0.55" d="M1065.37 213.991C1060.98 213.991 1057.42 210.428 1057.42 206.032C1057.42 201.637 1060.98 198.074 1065.37 198.074C1069.77 198.074 1073.33 201.637 1073.33 206.032C1073.33 210.428 1069.77 213.991 1065.37 213.991Z" fill="white"/>
<path opacity="0.55" d="M1065.37 325.407C1060.98 325.407 1057.42 321.646 1057.42 317.007C1057.42 312.367 1060.98 308.606 1065.37 308.606C1069.77 308.606 1073.33 312.367 1073.33 317.007C1073.33 321.646 1069.77 325.407 1065.37 325.407Z" fill="white"/>
<path opacity="0.55" d="M1065.37 186.579C1060.98 186.579 1057.42 182.818 1057.42 178.178C1057.42 173.539 1060.98 169.778 1065.37 169.778C1069.77 169.778 1073.33 173.539 1073.33 178.178C1073.33 182.818 1069.77 186.579 1065.37 186.579Z" fill="white"/>
<path opacity="0.55" d="M1065.37 297.111C1060.98 297.111 1057.42 293.548 1057.42 289.153C1057.42 284.758 1060.98 281.194 1065.37 281.194C1069.77 281.194 1073.33 284.758 1073.33 289.153C1073.33 293.548 1069.77 297.111 1065.37 297.111Z" fill="white"/>
<path opacity="0.55" d="M1065.37 242.287C1060.98 242.287 1057.42 238.526 1057.42 233.887C1057.42 229.247 1060.98 225.486 1065.37 225.486C1069.77 225.486 1073.33 229.247 1073.33 233.887C1073.33 238.526 1069.77 242.287 1065.37 242.287Z" fill="white"/>
<path opacity="0.55" d="M1065.37 352.819C1060.98 352.819 1057.42 349.256 1057.42 344.861C1057.42 340.466 1060.98 336.903 1065.37 336.903C1069.77 336.903 1073.33 340.466 1073.33 344.861C1073.33 349.256 1069.77 352.819 1065.37 352.819Z" fill="white"/>
<path opacity="0.55" d="M1010.54 158.282C1006.15 158.282 1002.58 154.719 1002.58 150.324C1002.58 145.929 1006.15 142.366 1010.54 142.366C1014.94 142.366 1018.5 145.929 1018.5 150.324C1018.5 154.719 1014.94 158.282 1010.54 158.282Z" fill="white"/>
<path opacity="0.55" d="M1010.54 269.699C1006.15 269.699 1002.58 265.938 1002.58 261.299C1002.58 256.659 1006.15 252.898 1010.54 252.898C1014.94 252.898 1018.5 256.659 1018.5 261.299C1018.5 265.938 1014.94 269.699 1010.54 269.699Z" fill="white"/>
<path opacity="0.55" d="M1010.54 213.991C1006.15 213.991 1002.58 210.428 1002.58 206.032C1002.58 201.637 1006.15 198.074 1010.54 198.074C1014.94 198.074 1018.5 201.637 1018.5 206.032C1018.5 210.428 1014.94 213.991 1010.54 213.991Z" fill="white"/>
<path opacity="0.55" d="M1010.54 325.407C1006.15 325.407 1002.58 321.646 1002.58 317.007C1002.58 312.367 1006.15 308.606 1010.54 308.606C1014.94 308.606 1018.5 312.367 1018.5 317.007C1018.5 321.646 1014.94 325.407 1010.54 325.407Z" fill="white"/>
<path opacity="0.55" d="M1010.54 186.579C1006.15 186.579 1002.58 182.818 1002.58 178.178C1002.58 173.539 1006.15 169.778 1010.54 169.778C1014.94 169.778 1018.5 173.539 1018.5 178.178C1018.5 182.818 1014.94 186.579 1010.54 186.579Z" fill="white"/>
<path opacity="0.55" d="M1010.54 297.111C1006.15 297.111 1002.58 293.548 1002.58 289.153C1002.58 284.758 1006.15 281.194 1010.54 281.194C1014.94 281.194 1018.5 284.758 1018.5 289.153C1018.5 293.548 1014.94 297.111 1010.54 297.111Z" fill="white"/>
<path opacity="0.55" d="M1010.54 242.287C1006.15 242.287 1002.58 238.526 1002.58 233.887C1002.58 229.247 1006.15 225.486 1010.54 225.486C1014.94 225.486 1018.5 229.247 1018.5 233.887C1018.5 238.526 1014.94 242.287 1010.54 242.287Z" fill="white"/>
<path opacity="0.55" d="M1010.54 352.819C1006.15 352.819 1002.58 349.256 1002.58 344.861C1002.58 340.466 1006.15 336.903 1010.54 336.903C1014.94 336.903 1018.5 340.466 1018.5 344.861C1018.5 349.256 1014.94 352.819 1010.54 352.819Z" fill="white"/>
<path opacity="0.55" d="M1037.96 158.282C1033.56 158.282 1030 154.719 1030 150.324C1030 145.929 1033.56 142.366 1037.96 142.366C1042.36 142.366 1045.92 145.929 1045.92 150.324C1045.92 154.719 1042.36 158.282 1037.96 158.282Z" fill="white"/>
<path opacity="0.55" d="M1037.96 269.699C1033.56 269.699 1030 265.938 1030 261.299C1030 256.659 1033.56 252.898 1037.96 252.898C1042.36 252.898 1045.92 256.659 1045.92 261.299C1045.92 265.938 1042.36 269.699 1037.96 269.699Z" fill="white"/>
<path opacity="0.55" d="M1037.96 213.991C1033.56 213.991 1030 210.428 1030 206.032C1030 201.637 1033.56 198.074 1037.96 198.074C1042.36 198.074 1045.92 201.637 1045.92 206.032C1045.92 210.428 1042.36 213.991 1037.96 213.991Z" fill="white"/>
<path opacity="0.55" d="M1037.96 325.407C1033.56 325.407 1030 321.646 1030 317.007C1030 312.367 1033.56 308.606 1037.96 308.606C1042.36 308.606 1045.92 312.367 1045.92 317.007C1045.92 321.646 1042.36 325.407 1037.96 325.407Z" fill="white"/>
<path opacity="0.55" d="M1037.96 186.579C1033.56 186.579 1030 182.818 1030 178.178C1030 173.539 1033.56 169.778 1037.96 169.778C1042.36 169.778 1045.92 173.539 1045.92 178.178C1045.92 182.818 1042.36 186.579 1037.96 186.579Z" fill="white"/>
<path opacity="0.55" d="M1037.96 297.111C1033.56 297.111 1030 293.548 1030 289.153C1030 284.758 1033.56 281.194 1037.96 281.194C1042.36 281.194 1045.92 284.758 1045.92 289.153C1045.92 293.548 1042.36 297.111 1037.96 297.111Z" fill="white"/>
<path opacity="0.55" d="M1037.96 242.287C1033.56 242.287 1030 238.526 1030 233.887C1030 229.247 1033.56 225.486 1037.96 225.486C1042.36 225.486 1045.92 229.247 1045.92 233.887C1045.92 238.526 1042.36 242.287 1037.96 242.287Z" fill="white"/>
<path opacity="0.55" d="M1037.96 352.819C1033.56 352.819 1030 349.256 1030 344.861C1030 340.466 1033.56 336.903 1037.96 336.903C1042.36 336.903 1045.92 340.466 1045.92 344.861C1045.92 349.256 1042.36 352.819 1037.96 352.819Z" fill="white"/>
<path opacity="0.55" d="M983.128 158.282C978.732 158.282 975.169 154.719 975.169 150.324C975.169 145.929 978.732 142.366 983.128 142.366C987.524 142.366 991.087 145.929 991.087 150.324C991.087 154.719 987.524 158.282 983.128 158.282Z" fill="white"/>
<path opacity="0.55" d="M983.128 269.699C978.732 269.699 975.169 265.938 975.169 261.299C975.169 256.659 978.732 252.898 983.128 252.898C987.524 252.898 991.087 256.659 991.087 261.299C991.087 265.938 987.524 269.699 983.128 269.699Z" fill="white"/>
<path opacity="0.55" d="M983.128 213.991C978.732 213.991 975.169 210.428 975.169 206.032C975.169 201.637 978.732 198.074 983.128 198.074C987.524 198.074 991.087 201.637 991.087 206.032C991.087 210.428 987.524 213.991 983.128 213.991Z" fill="white"/>
<path opacity="0.55" d="M983.128 325.407C978.732 325.407 975.169 321.646 975.169 317.007C975.169 312.367 978.732 308.606 983.128 308.606C987.524 308.606 991.087 312.367 991.087 317.007C991.087 321.646 987.524 325.407 983.128 325.407Z" fill="white"/>
<path opacity="0.55" d="M983.128 186.579C978.732 186.579 975.169 182.818 975.169 178.178C975.169 173.539 978.732 169.778 983.128 169.778C987.524 169.778 991.087 173.539 991.087 178.178C991.087 182.818 987.524 186.579 983.128 186.579Z" fill="white"/>
<path opacity="0.55" d="M983.128 297.111C978.732 297.111 975.169 293.548 975.169 289.153C975.169 284.758 978.732 281.194 983.128 281.194C987.524 281.194 991.087 284.758 991.087 289.153C991.087 293.548 987.524 297.111 983.128 297.111Z" fill="white"/>
<path opacity="0.55" d="M983.128 242.287C978.732 242.287 975.169 238.526 975.169 233.887C975.169 229.247 978.732 225.486 983.128 225.486C987.524 225.486 991.087 229.247 991.087 233.887C991.087 238.526 987.524 242.287 983.128 242.287Z" fill="white"/>
<path opacity="0.55" d="M983.128 352.819C978.732 352.819 975.169 349.256 975.169 344.861C975.169 340.466 978.732 336.903 983.128 336.903C987.524 336.903 991.087 340.466 991.087 344.861C991.087 349.256 987.524 352.819 983.128 352.819Z" fill="white"/>
<path opacity="0.55" d="M955.713 158.282C951.317 158.282 947.753 154.719 947.753 150.324C947.753 145.929 951.317 142.366 955.713 142.366C960.108 142.366 963.672 145.929 963.672 150.324C963.672 154.719 960.108 158.282 955.713 158.282Z" fill="white"/>
<path opacity="0.55" d="M955.713 269.699C951.317 269.699 947.753 265.938 947.753 261.299C947.753 256.659 951.317 252.898 955.713 252.898C960.108 252.898 963.672 256.659 963.672 261.299C963.672 265.938 960.108 269.699 955.713 269.699Z" fill="white"/>
<path opacity="0.55" d="M955.713 213.991C951.317 213.991 947.753 210.428 947.753 206.032C947.753 201.637 951.317 198.074 955.713 198.074C960.108 198.074 963.672 201.637 963.672 206.032C963.672 210.428 960.108 213.991 955.713 213.991Z" fill="white"/>
<path opacity="0.55" d="M955.713 325.407C951.317 325.407 947.753 321.646 947.753 317.007C947.753 312.367 951.317 308.606 955.713 308.606C960.108 308.606 963.672 312.367 963.672 317.007C963.672 321.646 960.108 325.407 955.713 325.407Z" fill="white"/>
<path opacity="0.55" d="M955.713 186.579C951.317 186.579 947.753 182.818 947.753 178.178C947.753 173.539 951.317 169.778 955.713 169.778C960.108 169.778 963.672 173.539 963.672 178.178C963.672 182.818 960.108 186.579 955.713 186.579Z" fill="white"/>
<path opacity="0.55" d="M955.713 297.111C951.317 297.111 947.753 293.548 947.753 289.153C947.753 284.758 951.317 281.194 955.713 281.194C960.108 281.194 963.672 284.758 963.672 289.153C963.672 293.548 960.108 297.111 955.713 297.111Z" fill="white"/>
<path opacity="0.55" d="M955.713 242.287C951.317 242.287 947.753 238.526 947.753 233.887C947.753 229.247 951.317 225.486 955.713 225.486C960.108 225.486 963.672 229.247 963.672 233.887C963.672 238.526 960.108 242.287 955.713 242.287Z" fill="white"/>
<path opacity="0.55" d="M955.713 352.819C951.317 352.819 947.753 349.256 947.753 344.861C947.753 340.466 951.317 336.903 955.713 336.903C960.108 336.903 963.672 340.466 963.672 344.861C963.672 349.256 960.108 352.819 955.713 352.819Z" fill="white"/>
</g>
</g>
<defs>
<linearGradient id="paint0_linear_2_56" x1="-49.706" y1="-333.63" x2="727.852" y2="327.153" gradientUnits="userSpaceOnUse">
<stop stop-color="#5AE6F9"/>
<stop offset="1" stop-color="#58EAF9"/>
</linearGradient>
<linearGradient id="paint1_linear_2_56" x1="-106.183" y1="32.6697" x2="893.974" y2="288.083" gradientUnits="userSpaceOnUse">
<stop stop-color="#57EDF9"/>
<stop offset="0.140625" stop-color="#65BFFD"/>
</linearGradient>
<linearGradient id="paint2_linear_2_56" x1="-333.747" y1="-346.054" x2="455.165" y2="300.027" gradientUnits="userSpaceOnUse">
<stop stop-color="#5AE6F9"/>
<stop offset="1" stop-color="#58EAF9"/>
</linearGradient>
<linearGradient id="paint3_linear_2_56" x1="-282.94" y1="249.745" x2="16.4469" y2="93.7171" gradientUnits="userSpaceOnUse">
<stop stop-color="#5BDEFA"/>
<stop offset="1" stop-color="#65BDFD"/>
</linearGradient>
<linearGradient id="paint4_linear_2_56" x1="1290.12" y1="315.416" x2="2067.68" y2="976.199" gradientUnits="userSpaceOnUse">
<stop stop-color="#5AE6F9"/>
<stop offset="1" stop-color="#58EAF9"/>
</linearGradient>
<linearGradient id="paint5_linear_2_56" x1="1396.37" y1="800.207" x2="2396.53" y2="1055.62" gradientUnits="userSpaceOnUse">
<stop stop-color="#57EDF9"/>
<stop offset="0.140625" stop-color="#65BFFD"/>
</linearGradient>
<linearGradient id="paint6_linear_2_56" x1="1271.39" y1="524.941" x2="2060.31" y2="1171.02" gradientUnits="userSpaceOnUse">
<stop stop-color="#5AE6F9"/>
<stop offset="1" stop-color="#58EAF9"/>
</linearGradient>
<linearGradient id="paint7_linear_2_56" x1="1024.17" y1="797.985" x2="1323.55" y2="641.958" gradientUnits="userSpaceOnUse">
<stop stop-color="#5BDEFA"/>
<stop offset="1" stop-color="#65BDFD"/>
</linearGradient>
<clipPath id="clip0_2_56">
<rect width="1698" height="955" fill="white" transform="matrix(-1 0 0 1 1596 0)"/>
</clipPath>
</defs>
</svg>
