<?xml version="1.0" encoding="utf-8"?>
<!-- Generator: Adobe Illustrator 16.0.0, SVG Export Plug-In . SVG Version: 6.00 Build 0)  -->
<!DOCTYPE svg PUBLIC "-//W3C//DTD SVG 1.1//EN" "http://www.w3.org/Graphics/SVG/1.1/DTD/svg11.dtd">
<svg version="1.1" id="Layer_1" xmlns="http://www.w3.org/2000/svg" xmlns:xlink="http://www.w3.org/1999/xlink" x="0px" y="0px"
	 width="61px" height="61px" viewBox="0 0 61 61" enable-background="new 0 0 61 61" xml:space="preserve">
<g id="Path_778" transform="translate(1486 364)">
	<path fill="none" d="M-1455.501-364c16.845,0,30.5,13.654,30.501,30.499c0.001,9.132-4.091,17.783-11.149,23.577
		c-5.443,4.5-12.29,6.949-19.352,6.924c-16.845,0-30.5-13.655-30.5-30.5S-1472.346-364-1455.501-364z"/>
	<path fill="#0092CE" d="M-1455.501-361c-3.714,0-7.315,0.727-10.703,2.16c-3.274,1.385-6.216,3.369-8.742,5.895
		c-2.527,2.526-4.51,5.468-5.896,8.742c-1.433,3.388-2.159,6.989-2.159,10.703s0.727,7.314,2.159,10.703
		c1.386,3.274,3.368,6.216,5.896,8.742c2.526,2.526,5.468,4.51,8.742,5.895c3.388,1.434,6.989,2.16,10.703,2.16
		c6.443,0,12.631-2.211,17.426-6.225c3.16-2.644,5.644-5.815,7.383-9.428c1.786-3.709,2.691-7.694,2.691-11.848
		c0-3.714-0.727-7.315-2.16-10.703c-1.385-3.274-3.367-6.216-5.895-8.742c-2.526-2.526-5.468-4.51-8.742-5.895
		C-1448.187-360.273-1451.787-361-1455.501-361 M-1455.501-364c16.845,0,30.5,13.655,30.5,30.5c0,9.399-4.252,17.806-11.148,23.576
		c-5.084,4.256-11.906,6.924-19.352,6.924c-16.845,0-30.5-13.655-30.5-30.5S-1472.346-364-1455.501-364z"/>
</g>
<path fill-rule="evenodd" clip-rule="evenodd" fill="#0092CE" stroke="#0092CE" stroke-miterlimit="10" d="M20.101,22.538
	c0-1.149-0.01-2.215,0.001-3.282c0.034-3.152,1.194-5.798,3.575-7.887c5.742-5.039,15.051-1.963,16.638,5.511
	c0.178,0.837,0.227,1.709,0.264,2.568c0.043,1.002,0.01,2.006,0.01,3.063c0.199,0.01,0.365,0.024,0.531,0.024
	c0.926,0.003,1.854-0.009,2.779,0.004c1.573,0.023,2.646,1.112,2.646,2.69c0.004,6.721,0.004,13.441,0,20.164
	c0,1.62-1.1,2.708-2.728,2.708c-8.983,0.002-17.966,0.002-26.948,0c-1.625,0-2.724-1.093-2.725-2.712
	c-0.003-6.722-0.003-13.441,0-20.164c0-1.576,1.074-2.665,2.65-2.686C17.874,22.526,18.954,22.538,20.101,22.538z M30.34,46.398
	c4.397,0,8.796,0,13.194,0c1.049,0,1.288-0.232,1.288-1.265c0-6.55,0-13.1,0-19.649c0-0.997-0.232-1.23-1.21-1.23
	c-8.843,0-17.686,0-26.529,0c-0.985,0-1.216,0.23-1.216,1.223c0,6.566,0,13.13,0,19.696c0,0.975,0.254,1.225,1.232,1.225
	C21.513,46.398,25.927,46.398,30.34,46.398z M38.846,22.507c0-0.669,0.017-1.311-0.005-1.951c-0.036-1.033,0.032-2.092-0.17-3.094
	c-0.884-4.391-4.668-7.168-9.134-6.794c-3.679,0.307-6.797,3-7.473,6.629c-0.247,1.327-0.16,2.716-0.218,4.077
	c-0.015,0.371-0.002,0.743-0.002,1.132C27.536,22.507,33.167,22.507,38.846,22.507z"/>
<path fill-rule="evenodd" clip-rule="evenodd" fill="#0092CE" stroke="#0092CE" stroke-miterlimit="10" d="M31.168,37.715
	c-0.577,0-1.104,0-1.66,0c0-0.669-0.046-1.313,0.013-1.946c0.053-0.563,0.436-0.968,0.899-1.264
	c0.369-0.234,0.767-0.425,1.152-0.635c1.138-0.617,1.54-1.516,1.231-2.744c-0.28-1.108-1.297-1.908-2.443-1.919
	c-1.131-0.014-2.186,0.79-2.471,1.885c-0.051,0.197-0.08,0.399-0.126,0.635c-0.525,0-1.066,0-1.66,0
	c-0.039-0.985,0.301-1.837,0.892-2.593c1.111-1.423,3.008-1.989,4.688-1.422c1.708,0.577,2.855,2.135,2.912,3.939
	c0.05,1.648-0.584,2.956-2.101,3.627c-1.031,0.457-1.547,1.043-1.307,2.179C31.206,37.527,31.178,37.607,31.168,37.715z"/>
<path fill-rule="evenodd" clip-rule="evenodd" fill="#0092CE" stroke="#0092CE" stroke-miterlimit="10" d="M31.034,41.14
	c0,0.591,0,1.148,0,1.746c-0.573,0-1.138,0-1.736,0c0-0.566,0-1.135,0-1.746C29.854,41.14,30.417,41.14,31.034,41.14z"/>
</svg>
