<?xml version="1.0" encoding="utf-8"?>
<!-- Generator: Adobe Illustrator 16.0.0, SVG Export Plug-In . SVG Version: 6.00 Build 0)  -->
<!DOCTYPE svg PUBLIC "-//W3C//DTD SVG 1.1//EN" "http://www.w3.org/Graphics/SVG/1.1/DTD/svg11.dtd">
<svg version="1.1" id="Layer_1" xmlns="http://www.w3.org/2000/svg" xmlns:xlink="http://www.w3.org/1999/xlink" x="0px" y="0px"
	 width="22px" height="24.25px" viewBox="0 0 22 24.25" enable-background="new 0 0 22 24.25" xml:space="preserve">
<g>
	
		<path fill-rule="evenodd" clip-rule="evenodd" fill="none" stroke="#0092CE" stroke-width="1.5" stroke-linecap="round" stroke-linejoin="round" stroke-miterlimit="10" d="
		M50.198,35.593c-0.568,0.54-1.466,0.603-2.114,0.518c-1.272-0.166-2.416-0.717-3.396-1.558c-0.188-0.161-0.375-0.194-0.597-0.192
		c-0.854,0.002-1.714,0.07-2.561-0.012c-3.343-0.32-6.222-1.521-8.128-4.472c-1.635-2.529-1.22-5.688,0.745-7.874
		c1.653-1.839,3.775-2.819,6.198-3.215c0.901-0.147,1.803-0.239,2.711-0.184c2.448,0.151,4.701,0.854,6.652,2.403
		c1.232,0.979,2.141,2.199,2.541,3.703c0.637,2.397-0.004,4.521-1.657,6.349c-0.552,0.611-1.167,1.161-1.88,1.563
		c-0.398,0.227-0.383,0.47-0.238,0.802c0.291,0.661,0.752,1.197,1.285,1.67C49.93,35.244,50.122,35.365,50.198,35.593"/>
</g>
<g>
	
		<path fill-rule="evenodd" clip-rule="evenodd" fill="none" stroke="#0092CE" stroke-width="1.5" stroke-linecap="round" stroke-linejoin="round" stroke-miterlimit="10" d="
		M15.709,23.084c0.521-0.893,1.807-3.826,2.849-3.834c0.533-0.006,1.063,0.01,1.599-0.063c0.541-0.072,0.84-0.484,0.892-0.91
		c0.029-0.23,0.04-0.467,0.04-0.699c0.003-4.016,0.004-8.027-0.001-12.04c-0.001-0.272-0.005-0.559-0.083-0.815
		c-0.179-0.576-0.682-0.687-1.199-0.741C19.688,3.97,19.571,3.98,19.453,3.98c-5.636,0-11.271,0-16.907,0.002
		c-0.129,0-0.267,0.026-0.39,0.025C1.268,4.001,0.914,4.469,0.913,5.421c-0.007,4.13-0.004,8.26-0.001,12.389
		c0,0.322,0.02,0.652,0.196,0.932c0.309,0.496,0.832,0.494,1.321,0.504c1.013,0.02,2.026,0.006,3.039,0.006
		c2.026,0,4.051,0.002,6.078-0.002c0.226,0,0.424,0.033,0.625,0.152c0.955,0.568,2.369,3.287,3.329,3.848"/>
	
		<path fill-rule="evenodd" clip-rule="evenodd" fill="none" stroke="#0092CE" stroke-width="1.5" stroke-linecap="round" stroke-linejoin="round" stroke-miterlimit="10" d="
		M17.545,11.616c-4.363,0-8.726,0-13.09,0"/>
	
		<path fill-rule="evenodd" clip-rule="evenodd" fill="none" stroke="#0092CE" stroke-width="1.5" stroke-linecap="round" stroke-linejoin="round" stroke-miterlimit="10" d="
		M17.545,14.889c-4.363,0-8.726,0-13.09,0"/>
	
		<path fill-rule="evenodd" clip-rule="evenodd" fill="none" stroke="#0092CE" stroke-width="1.5" stroke-linecap="round" stroke-linejoin="round" stroke-miterlimit="10" d="
		M13.182,8.344c-2.908,0-5.818,0-8.727,0"/>
</g>
</svg>
