<?xml version="1.0" encoding="utf-8"?>
<!-- Generator: Adobe Illustrator 16.0.0, SVG Export Plug-In . SVG Version: 6.00 Build 0)  -->
<!DOCTYPE svg PUBLIC "-//W3C//DTD SVG 1.1//EN" "http://www.w3.org/Graphics/SVG/1.1/DTD/svg11.dtd">
<svg version="1.1" id="Layer_1" xmlns="http://www.w3.org/2000/svg" xmlns:xlink="http://www.w3.org/1999/xlink" x="0px" y="0px"
	 width="61px" height="61px" viewBox="0 0 61 61" enable-background="new 0 0 61 61" xml:space="preserve">
<path fill-rule="evenodd" clip-rule="evenodd" fill="#0092CE" d="M29.145,0.602c0.904,0,1.808,0,2.713,0
	c0.12,0.018,0.239,0.046,0.361,0.053c2.065,0.107,4.102,0.422,6.097,0.971c6.969,1.917,12.575,5.816,16.791,11.679
	c3.069,4.27,4.858,9.046,5.418,14.277c0.066,0.622,0.119,1.244,0.177,1.865c0,0.904,0,1.808,0,2.712
	c-0.019,0.109-0.046,0.219-0.052,0.33c-0.198,3.696-1.065,7.232-2.563,10.619c-4.545,10.284-14.655,17.242-25.91,17.845
	c-4.167,0.224-8.218-0.349-12.121-1.813C13.321,56.615,8.11,52.238,4.438,46.056c-2.206-3.714-3.512-7.736-3.963-12.035
	c-0.065-0.62-0.118-1.241-0.176-1.861c0-0.904,0-1.809,0-2.712c0.018-0.13,0.046-0.259,0.053-0.39
	c0.105-1.974,0.394-3.921,0.909-5.829C3.437,15.188,8.11,9.019,15.248,4.742c3.705-2.219,7.735-3.512,12.031-3.964
	C27.9,0.712,28.522,0.66,29.145,0.602z M56.933,30.825C56.956,16.304,45.102,4.403,30.587,4.377
	C15.978,4.35,4.101,16.177,4.073,30.778C4.046,45.298,15.9,57.199,30.418,57.229C45.021,57.258,56.908,45.42,56.933,30.825z"/>
<path fill-rule="evenodd" clip-rule="evenodd" fill="#0092CE" d="M28.674,35.222c-0.002-0.996-0.046-1.992,0.255-2.963
	c0.445-1.437,1.278-2.639,2.278-3.726c1.05-1.141,2.149-2.236,3.217-3.36c0.283-0.297,0.529-0.628,0.794-0.942
	c0.777-0.923,0.933-1.958,0.653-3.118c-0.585-2.426-2.769-4.21-5.252-4.246c-2.62-0.037-4.812,1.578-5.44,4.04
	c-0.117,0.453-0.139,0.931-0.175,1.4c-0.063,0.842-0.541,1.49-1.304,1.727c-0.74,0.23-1.533-0.025-2.005-0.648
	c-0.27-0.358-0.378-0.765-0.373-1.211c0.042-4.154,3.026-7.839,7.085-8.749c5.314-1.19,10.404,2.328,11.206,7.719
	c0.279,1.885-0.143,3.583-1.303,5.067c-0.752,0.959-1.603,1.841-2.423,2.747c-0.873,0.966-1.79,1.895-2.636,2.884
	c-0.652,0.764-0.975,1.664-0.912,2.703c0.05,0.817,0.015,1.641,0.009,2.463c-0.005,1.075-0.775,1.888-1.806,1.913
	c-1.011,0.024-1.834-0.783-1.866-1.852C28.658,36.454,28.673,35.836,28.674,35.222z"/>
<path fill-rule="evenodd" clip-rule="evenodd" fill="#0092CE" d="M30.479,48.009c-1.511-0.009-2.742-1.245-2.736-2.753
	c0.005-1.519,1.254-2.751,2.781-2.744c1.507,0.006,2.74,1.249,2.734,2.757C33.253,46.794,32.011,48.019,30.479,48.009z"/>
</svg>
