<?xml version="1.0" encoding="utf-8"?>
<!-- Generator: Adobe Illustrator 16.0.0, SVG Export Plug-In . SVG Version: 6.00 Build 0)  -->
<!DOCTYPE svg PUBLIC "-//W3C//DTD SVG 1.1//EN" "http://www.w3.org/Graphics/SVG/1.1/DTD/svg11.dtd">
<svg version="1.1" id="Layer_1" xmlns="http://www.w3.org/2000/svg" xmlns:xlink="http://www.w3.org/1999/xlink" x="0px" y="0px"
	 width="22px" height="24.25px" viewBox="0 0 22 24.25" enable-background="new 0 0 22 24.25" xml:space="preserve">
<path fill-rule="evenodd" clip-rule="evenodd" fill="none" stroke="#0092CE" stroke-linecap="round" stroke-linejoin="round" stroke-miterlimit="10" d="
	M51.625,42.727c-2.389-0.355-4.896-0.537-7.152-0.023c-2.113,0.481-3.984,2.073-5.926,3.236c-0.42,0.252-0.16,0.835-0.16,1.259
	c-0.016,5.426-0.01,10.853-0.014,16.281c-0.001,0.533,0.1,1.083-0.156,1.596"/>
<path fill-rule="evenodd" clip-rule="evenodd" fill="none" stroke="#0092CE" stroke-linecap="round" stroke-linejoin="round" stroke-miterlimit="10" d="
	M85.468,65.075c-0.259-0.513-0.158-1.063-0.158-1.596c-0.009-5.429-0.021-10.855,0.013-16.281c0.005-0.838-0.122-1.429-0.968-1.771
	c-0.614-0.25-1.259-0.53-1.749-0.957c-3.174-2.745-6.917-1.874-10.546-1.743"/>
<path fill-rule="evenodd" clip-rule="evenodd" fill="none" stroke="#0092CE" stroke-linecap="round" stroke-linejoin="round" stroke-miterlimit="10" d="
	M51.783,35.223c0.353,1.318,0.133,2.664,0.148,3.992c0.036,3.567,0.012,7.131,0.012,10.695c0,5.058,0,10.109,0,15.165"/>
<path fill-rule="evenodd" clip-rule="evenodd" fill="none" stroke="#0092CE" stroke-linecap="round" stroke-linejoin="round" stroke-miterlimit="10" d="
	M71.896,35.223c-0.351,1.318-0.131,2.664-0.145,3.992c-0.039,3.567-0.018,7.131-0.018,10.695c0,5.058,0,10.109,0,15.165"/>
<path fill-rule="evenodd" clip-rule="evenodd" fill="none" stroke="#0092CE" stroke-linecap="round" stroke-linejoin="round" stroke-miterlimit="10" d="
	M65.032,65.075c0-1.596,0-3.193,0-4.789c0-1.996-1.108-3.291-2.874-3.354c-1.996-0.069-3.257,1.09-3.337,3.193
	c-0.064,1.646-0.012,3.3-0.012,4.949"/>
<path fill-rule="evenodd" clip-rule="evenodd" fill="none" stroke="#0092CE" stroke-linecap="round" stroke-linejoin="round" stroke-miterlimit="10" d="
	M63.599,25.646c0.483-0.084,0.943-0.069,1.46-0.258c1.192-0.438,2.481-0.865,3.822-0.299c0.549-1.32,0.29-2.637,0.271-3.913
	c-0.008-0.824-1.41-1.173-2.682-0.804c-1.354,0.391-2.64,1.266-4.471,0.432c0,2.811,0,5.423,0,8.035"/>
<path fill-rule="evenodd" clip-rule="evenodd" fill="none" stroke="#0092CE" stroke-linecap="round" stroke-linejoin="round" stroke-miterlimit="10" d="
	M67.268,36.021c-1.376-1.612-3.537-2.033-5.158-3.438c-1.721,1.262-3.884,1.81-5.376,3.438"/>
<path fill-rule="evenodd" clip-rule="evenodd" fill="none" stroke="#0092CE" stroke-linecap="round" stroke-linejoin="round" stroke-miterlimit="10" d="
	M74.771,36.341c-4.225-2.411-8.446-4.827-12.852-7.345c-3.099,1.794-6.383,3.682-9.655,5.595c-0.988,0.579-1.939,1.22-3.034,1.592"
	/>
<path fill-rule="evenodd" clip-rule="evenodd" fill="none" stroke="#0092CE" stroke-linecap="round" stroke-linejoin="round" stroke-miterlimit="10" d="
	M51.625,45.92c-2.707,0.354-5.429,0.062-8.141,0.158"/>
<path fill-rule="evenodd" clip-rule="evenodd" fill="none" stroke="#0092CE" stroke-linecap="round" stroke-linejoin="round" stroke-miterlimit="10" d="
	M72.06,45.92c2.708,0.354,5.426,0.062,8.14,0.158"/>
<path fill-rule="evenodd" clip-rule="evenodd" fill="none" stroke="#0092CE" stroke-linecap="round" stroke-linejoin="round" stroke-miterlimit="10" d="
	M58.487,39.854c-1.04,0.734-0.11,1.713-0.663,2.635c1.196,0,2.048,0,2.875,0c0.199-0.879,0.328-1.677-0.035-2.635
	c-0.623,0-1.32,0-2.018,0"/>
<path fill-rule="evenodd" clip-rule="evenodd" fill="none" stroke="#0092CE" stroke-linecap="round" stroke-linejoin="round" stroke-miterlimit="10" d="
	M63.599,39.854c-0.97,0.742-0.354,1.686-0.311,2.635c0.842,0,1.691,0,2.735,0c-0.097-0.879,0.101-1.677-0.251-2.635
	c-0.626,0-1.318,0-2.016,0"/>
<path fill-rule="evenodd" clip-rule="evenodd" fill="none" stroke="#0092CE" stroke-linecap="round" stroke-linejoin="round" stroke-miterlimit="10" d="
	M58.487,45.439c-0.901,0.693-0.526,1.596-0.29,2.389c0.232,0.772,1.009,0.433,1.57,0.479c0.783,0.066,1.153-0.326,1.115-1.108
	c-0.024-0.538,0.107-1.088-0.268-1.627c-0.568-0.208-1.271-0.118-1.969-0.132"/>
<path fill-rule="evenodd" clip-rule="evenodd" fill="none" stroke="#0092CE" stroke-linecap="round" stroke-linejoin="round" stroke-miterlimit="10" d="
	M63.915,45.439c-1.375,0.352-0.952,1.611-0.724,2.207c0.482,1.232,1.697,0.581,2.722,0.502c0-0.848,0-1.697,0-2.709
	c-0.661,0-1.254,0-1.836,0"/>
<path fill-rule="evenodd" clip-rule="evenodd" fill="none" stroke="#0092CE" stroke-linecap="round" stroke-linejoin="round" stroke-miterlimit="10" d="
	M58.487,51.187c-1.031,0.736-0.14,1.711-0.651,2.637c1.125,0,1.926,0,2.809,0c0.457-0.743,0.236-1.613,0.081-2.462
	c-0.679-0.252-1.382-0.159-2.079-0.175"/>
<path fill-rule="evenodd" clip-rule="evenodd" fill="none" stroke="#0092CE" stroke-linecap="round" stroke-linejoin="round" stroke-miterlimit="10" d="
	M63.915,51.187c-1.491,0.533-0.587,1.661-0.688,2.637c0.842,0,1.644,0,2.543,0c0.464-0.743,0.117-1.62,0.267-2.637
	c-0.784,0-1.377,0-1.959,0"/>
<path fill-rule="evenodd" clip-rule="evenodd" fill="none" stroke="#0092CE" stroke-linecap="round" stroke-linejoin="round" stroke-miterlimit="10" d="
	M44.122,51.824c-1.02,0.798-0.296,1.801-0.317,2.637c0.801,0,1.602,0,2.473,0c0-0.817,0-1.566,0-2.392
	c-0.546-0.455-1.297-0.175-1.996-0.245"/>
<path fill-rule="evenodd" clip-rule="evenodd" fill="none" stroke="#0092CE" stroke-linecap="round" stroke-linejoin="round" stroke-miterlimit="10" d="
	M77.964,51.824c-1.49,0.604-0.193,1.727-0.794,2.637c1.105,0,1.907,0,2.788,0c0-0.773,0-1.624,0-2.637c-0.662,0-1.249,0-1.836,0"/>
<path fill-rule="evenodd" clip-rule="evenodd" fill="none" stroke="#0092CE" stroke-linecap="round" stroke-linejoin="round" stroke-miterlimit="10" d="
	M44.122,56.933c-1.047,0.797-0.188,1.813-0.634,2.932c1.113-0.121,1.91,0.08,2.789-0.249c0-0.761,0-1.56,0-2.434
	c-0.546-0.459-1.297-0.177-1.996-0.249"/>
<path fill-rule="evenodd" clip-rule="evenodd" fill="none" stroke="#0092CE" stroke-linecap="round" stroke-linejoin="round" stroke-miterlimit="10" d="
	M77.964,56.933c-1.359,0.565-0.268,1.743-0.71,2.556c0.89,0.559,1.766,0.216,2.704,0.353c0-1.044,0-1.897,0-2.908
	c-0.662,0-1.249,0-1.836,0"/>
<path fill-rule="evenodd" clip-rule="evenodd" fill="none" stroke="#0092CE" stroke-width="1.5" stroke-linecap="round" stroke-linejoin="round" stroke-miterlimit="10" d="
	M17.175,14.082c0.414-0.02,0.704-0.306,1.038-0.491c0.394-0.22,0.711-0.595,1.212-0.606c0.028-0.002,0.068-0.033,0.083-0.06
	c0.326-0.558,0.948-0.742,1.416-1.123c0.053-0.043,0.119-0.072,0.172-0.117c0.262-0.222,0.253-0.485-0.028-0.688
	c-0.362-0.257-0.729-0.506-1.097-0.752c-0.911-0.607-1.821-1.219-2.741-1.817c-1.86-1.206-3.731-2.401-5.593-3.608
	C11.149,4.501,10.7,4.585,10.25,4.878c-1.154,0.75-2.31,1.499-3.461,2.25c-1.895,1.239-3.79,2.48-5.683,3.721
	c-0.069,0.045-0.139,0.092-0.202,0.145c-0.262,0.222-0.256,0.488,0.029,0.69c0.474,0.335,0.957,0.661,1.441,0.982
	c0.623,0.407,1.252,0.806,1.875,1.217c0.169,0.108,0.346,0.179,0.549,0.169"/>
<path fill-rule="evenodd" clip-rule="evenodd" fill="none" stroke="#0092CE" stroke-width="1.5" stroke-linecap="round" stroke-linejoin="round" stroke-miterlimit="10" d="
	M4.856,14.082c0.102,0.229,0.148,0.465,0.146,0.72c-0.006,0.903,0.001,1.809-0.004,2.712c-0.002,0.438,0.136,0.785,0.518,1.042
	c0.792,0.532,1.682,0.776,2.6,0.946c1.037,0.188,2.089,0.283,3.144,0.254c1.347-0.041,2.692-0.162,3.98-0.599
	c0.463-0.16,0.906-0.347,1.305-0.653c0.352-0.272,0.451-0.618,0.455-1.021c0.005-0.661-0.011-1.326,0.005-1.989
	c0.012-0.473-0.1-0.959,0.141-1.412c-0.23-0.444-0.12-0.922-0.146-1.386c-0.002-0.078,0.008-0.156,0-0.23
	c-0.051-0.567-0.437-0.854-0.891-1.1c-0.653-0.354-1.364-0.53-2.078-0.691c-1.211-0.271-2.44-0.215-3.665-0.231
	c-1.33-0.018-2.615,0.207-3.865,0.643c-0.434,0.15-0.847,0.354-1.187,0.685c-0.222,0.218-0.308,0.482-0.313,0.781
	c-0.006,0.26-0.01,0.52,0,0.78c0.01,0.259-0.04,0.5-0.176,0.721"/>
<path fill-rule="evenodd" clip-rule="evenodd" fill="none" stroke="#0092CE" stroke-width="1.5" stroke-linecap="round" stroke-linejoin="round" stroke-miterlimit="10" d="
	M15.672,16.474c-0.814-0.285-1.651-0.494-2.51-0.6c-0.421-0.054-0.845-0.081-1.267-0.087c-0.847-0.012-1.696-0.046-2.539,0.031
	c-1.034,0.093-2.049,0.298-3.03,0.655"/>
<path fill-rule="evenodd" clip-rule="evenodd" fill="none" stroke="#0092CE" stroke-width="1.5" stroke-linecap="round" stroke-linejoin="round" stroke-miterlimit="10" d="
	M19.48,12.985c0.147,0.207,0.178,0.44,0.179,0.691c0.001,1.106,0.019,2.213,0.021,3.316c0.001,0.531-0.057,1.06,0.001,1.589
	c0.019,0.146-0.033,0.243-0.164,0.355c-0.315,0.279-0.461,0.684-0.634,1.059c-0.085,0.18-0.202,0.346-0.239,0.547
	c-0.052,0.272,0.008,0.437,0.263,0.483c0.508,0.095,1.016,0.12,1.529-0.016c0.233-0.059,0.302-0.204,0.25-0.378
	c-0.184-0.633-0.456-1.228-0.89-1.733c-0.026-0.03-0.074-0.039-0.113-0.061"/>
</svg>
