<svg xmlns="http://www.w3.org/2000/svg" width="26.207" height="26.207" viewBox="0 0 26.207 26.207">
  <g id="Group_5" data-name="Group 5" transform="translate(-1759.5 -67)">
    <g id="Path_36" data-name="Path 36" transform="translate(1759.5 67)" fill="none">
      <path d="M9.871,0A9.871,9.871,0,1,1,0,9.871,9.871,9.871,0,0,1,9.871,0Z" stroke="none"/>
      <path d="M 9.870967864990234 1.999998092651367 C 5.530898094177246 1.999998092651367 1.999998092651367 5.530898094177246 1.999998092651367 9.870967864990234 C 1.999998092651367 14.21103763580322 5.530898094177246 17.7419376373291 9.870967864990234 17.7419376373291 C 14.21103763580322 17.7419376373291 17.7419376373291 14.21103763580322 17.7419376373291 9.870967864990234 C 17.7419376373291 5.530898094177246 14.21103763580322 1.999998092651367 9.870967864990234 1.999998092651367 M 9.870967864990234 -1.9073486328125e-06 C 15.32254791259766 -1.9073486328125e-06 19.7419376373291 4.419387817382813 19.7419376373291 9.870967864990234 C 19.7419376373291 15.32254791259766 15.32254791259766 19.7419376373291 9.870967864990234 19.7419376373291 C 4.419387817382813 19.7419376373291 -1.9073486328125e-06 15.32254791259766 -1.9073486328125e-06 9.870967864990234 C -1.9073486328125e-06 4.419387817382813 4.419387817382813 -1.9073486328125e-06 9.870967864990234 -1.9073486328125e-06 Z" stroke="none" fill="#84868b"/>
    </g>
    <path id="Path_785" data-name="Path 785" d="M0,0,2.468,2.468l7.4,7.4" transform="translate(1775.129 82.629)" fill="none" stroke="#84868b" stroke-width="2"/>
  </g>
</svg>
