<svg xmlns="http://www.w3.org/2000/svg" width="38.062" height="38.061" viewBox="0 0 38.062 38.061">
  <path id="Path_30" data-name="Path 30" d="M54.583,128.505a19.031,19.031,0,0,0-19.031,19.031h0a19.031,19.031,0,0,0,38.062,0h0A19.031,19.031,0,0,0,54.583,128.505ZM62.647,143.4a11.833,11.833,0,0,1-18.2,10.507,8.366,8.366,0,0,0,6.159-1.723,4.162,4.162,0,0,1-3.886-2.89,4.165,4.165,0,0,0,1.878-.07,4.166,4.166,0,0,1-3.337-4.133,4.147,4.147,0,0,0,1.885.521,4.165,4.165,0,0,1-1.287-5.555,11.807,11.807,0,0,0,8.575,4.347,4.164,4.164,0,0,1,7.09-3.8,8.347,8.347,0,0,0,2.641-1.01,4.166,4.166,0,0,1-1.829,2.3,8.3,8.3,0,0,0,2.389-.655A8.433,8.433,0,0,1,62.647,143.4Z" transform="translate(-35.552 -128.505)" fill="#fff"/>
</svg>
