<?xml version="1.0" encoding="utf-8"?>
<!-- Generator: Adobe Illustrator 16.0.0, SVG Export Plug-In . SVG Version: 6.00 Build 0)  -->
<!DOCTYPE svg PUBLIC "-//W3C//DTD SVG 1.1//EN" "http://www.w3.org/Graphics/SVG/1.1/DTD/svg11.dtd">
<svg version="1.1" id="Layer_1" xmlns="http://www.w3.org/2000/svg" xmlns:xlink="http://www.w3.org/1999/xlink" x="0px" y="0px"
	 width="61px" height="61px" viewBox="0 0 61 61" enable-background="new 0 0 61 61" xml:space="preserve">
<g id="Path_778" transform="translate(1486 364)">
	<path fill="none" d="M-1455.5-364c16.845,0,30.5,13.654,30.501,30.499c0.001,9.132-4.091,17.783-11.149,23.577
		c-5.443,4.5-12.29,6.949-19.352,6.924c-16.845,0-30.5-13.655-30.5-30.5S-1472.345-364-1455.5-364z"/>
	<path fill="#0092CE" d="M-1455.5-361c-3.714,0-7.315,0.727-10.703,2.16c-3.274,1.385-6.216,3.369-8.742,5.895
		c-2.527,2.526-4.51,5.468-5.895,8.742c-1.433,3.388-2.16,6.989-2.16,10.703s0.727,7.314,2.16,10.703
		c1.385,3.274,3.368,6.216,5.895,8.742c2.526,2.526,5.468,4.51,8.742,5.895c3.388,1.434,6.989,2.16,10.703,2.16
		c6.443,0,12.631-2.211,17.426-6.225c3.16-2.644,5.644-5.815,7.383-9.428c1.786-3.709,2.691-7.694,2.691-11.848
		c0-3.714-0.727-7.315-2.16-10.703c-1.385-3.274-3.367-6.216-5.895-8.742c-2.526-2.526-5.468-4.51-8.742-5.895
		C-1448.186-360.273-1451.786-361-1455.5-361 M-1455.5-364c16.845,0,30.5,13.655,30.5,30.5c0,9.399-4.252,17.806-11.148,23.576
		c-5.084,4.256-11.906,6.924-19.352,6.924c-16.845,0-30.5-13.655-30.5-30.5S-1472.345-364-1455.5-364z"/>
</g>
<g>
	<path fill-rule="evenodd" clip-rule="evenodd" fill="none" stroke="#0092CE" stroke-width="2.5" stroke-miterlimit="10" d="
		M47.441,22.059c0.078-0.274,0.198-0.545,0.227-0.825c0.093-0.943-0.48-1.53-1.465-1.53c-4.866-0.001-9.737-0.001-14.604-0.001
		c-5.34,0-10.679,0-16.019,0c-1.295,0-1.898,0.836-1.462,2.058c0.06,0.173,0.137,0.291,0.026,0.478
		c-0.27,0.451-0.276,0.957-0.274,1.468c0.005,6.105,0.004,12.209,0.004,18.313c0,1.047,0.335,1.331,1.222,1.794
		c1.098,0.579,2.226,0.502,3.37,0.502c8.775,0.003,17.55,0,26.324,0.007c0.493,0,0.951-0.078,1.35-0.364
		c0.167-0.118,0.351-0.174,0.536-0.227c0.734-0.216,1.114-0.7,1.118-1.476c0.004-2.08,0-4.16,0-6.242
		c0-4.18-0.004-8.361,0.004-12.543c0-0.489-0.076-0.945-0.356-1.354"/>
	<path fill-rule="evenodd" clip-rule="evenodd" fill="none" stroke="#0092CE" stroke-width="2.5" stroke-miterlimit="10" d="
		M47.38,22.059c-0.691-0.01-1.168,0.438-1.643,0.831c-2.621,2.165-5.224,4.353-7.838,6.529c-1.19,0.988-2.399,1.958-3.589,2.95
		c-0.276,0.231-0.532,0.494-0.711,0.819c-0.033,0.061-0.064,0.155-0.116,0.17c-1.207,0.392-2.381,1.012-3.708,0.592
		c-0.521-0.167-1.02-0.398-1.533-0.582c-0.266-0.093-0.245-0.375-0.409-0.538c-0.556-0.549-1.166-1.032-1.768-1.529
		c-2.203-1.819-4.399-3.648-6.598-5.473c-1.373-1.14-2.741-2.288-4.128-3.41c-0.29-0.233-0.667-0.343-1.054-0.359"/>
	<path fill-rule="evenodd" clip-rule="evenodd" fill="none" stroke="#0092CE" stroke-width="2.5" stroke-miterlimit="10" d="
		M28.065,33.424c-0.603,0.881-1.539,1.376-2.361,1.995c-3.147,2.373-6.318,4.715-9.473,7.077c-0.432,0.322-0.771,0.738-1.005,1.233"
		/>
	<path fill-rule="evenodd" clip-rule="evenodd" fill="none" stroke="#0092CE" stroke-width="2.5" stroke-miterlimit="10" d="
		M33.6,33.424c0.581,0.883,1.508,1.376,2.309,1.986c3.133,2.375,6.313,4.684,9.468,7.027c0.454,0.337,0.817,0.771,1.063,1.292"/>
</g>
</svg>
