<svg xmlns="http://www.w3.org/2000/svg" width="61" height="61" viewBox="0 0 61 61">
  <g id="Group_435" data-name="Group 435" transform="translate(-1486 -364)">
    <g id="Path_778" data-name="Path 778" transform="translate(1486 364)" fill="none">
      <path d="M30.5,0A30.5,30.5,0,0,1,49.851,54.076,30.194,30.194,0,0,1,30.5,61a30.5,30.5,0,0,1,0-61Z" stroke="none"/>
      <path d="M 30.5 3 C 26.78620147705078 3 23.18508911132813 3.726676940917969 19.79667663574219 5.159854888916016 C 16.52235412597656 6.544776916503906 13.58108901977539 8.528045654296875 11.0545654296875 11.0545654296875 C 8.528045654296875 13.58108901977539 6.544776916503906 16.52235412597656 5.159854888916016 19.79667663574219 C 3.726676940917969 23.18508911132813 3 26.78620147705078 3 30.5 C 3 34.21379852294922 3.726676940917969 37.81491088867188 5.159854888916016 41.20332336425781 C 6.544776916503906 44.47764587402344 8.528045654296875 47.41891098022461 11.0545654296875 49.9454345703125 C 13.58108901977539 52.47195434570313 16.52235412597656 54.45522308349609 19.79667663574219 55.84014511108398 C 23.18508911132813 57.27332305908203 26.78620147705078 58 30.5 58 C 36.94293212890625 58 43.13145446777344 55.78951263427734 47.92631149291992 51.77511215209961 C 51.08560943603516 49.13177871704102 53.56953430175781 45.95978927612305 55.30907821655273 42.34723281860352 C 57.09464263916016 38.63909912109375 58 34.65312194824219 58 30.5 C 58 26.78620147705078 57.27332305908203 23.18508911132813 55.84014511108398 19.79667663574219 C 54.45522308349609 16.52235412597656 52.47195434570313 13.58108901977539 49.9454345703125 11.0545654296875 C 47.41891098022461 8.528045654296875 44.47764587402344 6.544776916503906 41.20332336425781 5.159854888916016 C 37.81491088867188 3.726676940917969 34.21379852294922 3 30.5 3 M 30.5 0 C 47.34467697143555 0 61 13.65532302856445 61 30.5 C 61 39.89926910400391 56.74827575683594 48.30550003051758 49.85140991210938 54.07597732543945 C 44.76772308349609 58.33219909667969 37.94541168212891 61 30.5 61 C 13.65532302856445 61 0 47.34467697143555 0 30.5 C 0 13.65532302856445 13.65532302856445 0 30.5 0 Z" stroke="none" fill="#0092ce"/>
    </g>
    <g id="login" transform="translate(1501 375.992)">
      <path id="Path_782" data-name="Path 782" d="M93.851,17.045a8.519,8.519,0,1,1,8.519-8.518A8.528,8.528,0,0,1,93.851,17.045Zm0-14.482a5.963,5.963,0,1,0,5.963,5.963,5.97,5.97,0,0,0-5.963-5.963Zm0,0" transform="translate(-78.517)" fill="#0092ce"/>
      <path id="Path_783" data-name="Path 783" d="M29.389,271.341H1.278A1.278,1.278,0,0,1,0,270.064V264.1a8.1,8.1,0,0,1,8.093-8.093H22.574a8.1,8.1,0,0,1,8.093,8.093v5.963A1.278,1.278,0,0,1,29.389,271.341ZM2.556,268.786H28.111V264.1a5.544,5.544,0,0,0-5.537-5.537H8.093A5.544,5.544,0,0,0,2.556,264.1Zm0,0" transform="translate(0 -235.555)" fill="#0092ce"/>
    </g>
  </g>
</svg>
